<?xml version="1.0" standalone="no"?>
<!DOCTYPE svg PUBLIC "-//W3C//DTD SVG 1.1//EN" "http://www.w3.org/Graphics/SVG/1.1/DTD/svg11.dtd" >
<svg xmlns="http://www.w3.org/2000/svg">
<metadata>Generated by IcoMoon</metadata>
<defs>
<font id="icomoon" horiz-adv-x="1024">
<font-face units-per-em="1024" ascent="960" descent="-64" />
<missing-glyph horiz-adv-x="1024" />
<glyph unicode="&#x20;" horiz-adv-x="512" d="" />
<glyph unicode="&#xe900;" d="M578.784 559.304v66.79h378.434v66.782h66.782v133.566h-66.782v66.782h-534.262v-66.782h-66.782v-66.784h-66.782v-66.786h-66.774v-556.528h66.774v-66.778h66.782v-66.784h66.782v-66.782h534.262v66.788h66.776v133.564h-66.776v66.778h-378.436v66.784h-66.774v289.39z" />
<glyph unicode="&#xe901;" d="M578.782 692.87h378.434v-66.782h-378.434v66.782z" />
<glyph unicode="&#xe902;" d="M578.782 203.13h378.434v-66.782h-378.434v66.782z" />
<glyph unicode="&#xe903;" d="M289.392 759.658h66.782v-66.782h-66.782v66.782z" />
<glyph unicode="&#xe904;" d="M289.392 136.348h66.782v-66.782h-66.782v66.782z" />
<glyph unicode="&#xe905;" d="M422.956 69.566h-66.782v-66.784h66.782v-66.782h534.262v66.782h-534.262z" />
<glyph unicode="&#xe906;" d="M422.956 893.224v-66.782h-66.782v-66.784h66.782v66.784h534.262v66.782z" />
<glyph unicode="&#xe907;" d="M222.608 692.87h66.782v-556.522h-66.782v556.522z" />
<glyph unicode="&#xe908;" d="M957.218 826.442h66.782v-133.566h-66.782v133.566z" />
<glyph unicode="&#xe909;" d="M957.218 136.348h66.782v-133.566h-66.782v133.566z" />
<glyph unicode="&#xe90a;" d="M512 269.914v289.39h-66.782v-289.398h66.776v-66.776h66.782v66.784z" />
<glyph unicode="&#xe90b;" d="M512 626.086h66.782v-66.782h-66.782v66.782z" />
<glyph unicode="&#xe90c;" d="M0 893.218h66.782v-111.304h-66.782v111.304z" />
<glyph unicode="&#xe90d;" d="M66.782 960h111.304v-66.782h-111.304v66.782z" />
<glyph unicode="&#xe90e;" d="M66.782 781.914h111.304v-66.782h-111.304v66.782z" />
<glyph unicode="&#xe90f;" d="M178.086 893.218h66.782v-111.304h-66.782v111.304z" />
<glyph unicode="&#xe910;" d="M957.218 425.74v66.782h-66.784l-0.014 66.782h-111.29l-0.016 155.826h-66.782v66.784h-66.766v66.782h-267.132v-66.782h-66.782v-66.784h-66.782v-155.826h-111.32v-66.782h-66.768v-66.782h-66.782v-244.87h66.782v-66.784h66.784v-66.782h756.868v66.782h66.784v66.784h66.782v244.87z" />
<glyph unicode="&#xe911;" d="M311.652 781.914h66.782v-66.782h-66.782v66.782z" />
<glyph unicode="&#xe912;" d="M645.566 492.522h66.782v-66.782h-66.782v66.782z" />
<glyph unicode="&#xe913;" d="M66.782 180.87h66.782v-66.782h-66.782v66.782z" />
<glyph unicode="&#xe914;" d="M378.434 848.696h267.13v-66.782h-267.13v66.782z" />
<glyph unicode="&#xe915;" d="M244.87 492.522h66.782v-66.782h66.782v66.782h-66.782v222.608h-66.782v-155.826h-111.304v-66.782z" />
<glyph unicode="&#xe916;" d="M66.782 425.74h66.784v66.782h-66.784v-66.782h-66.782v-244.87h66.782z" />
<glyph unicode="&#xe917;" d="M779.13 559.304v155.826h-66.782v66.784h-66.782v-66.784h66.782v-222.608h178.086v66.782z" />
<glyph unicode="&#xe918;" d="M890.434 180.87h66.782v-66.782h-66.782v66.782z" />
<glyph unicode="&#xe919;" d="M890.434 492.522h66.782v-66.782h-66.782v66.782z" />
<glyph unicode="&#xe91a;" d="M957.218 425.74h66.782v-244.87h-66.782v244.87z" />
<glyph unicode="&#xe91b;" d="M133.566 114.086h756.87v-66.782h-756.87v66.782z" />
<glyph unicode="&#xe91c;" d="M857.044 136.348v0h-66.784v66.782h-66.764v22.262h-0.006v66.788h-66.784v66.784h-400.694v-66.784h-66.784l0.010-66.788v-22.262h-66.804v-66.782h-66.782v-133.566h66.794v-66.782h667.826v66.782h66.782v133.566z" />
<glyph unicode="&#xe91d;" d="M768 692.87h-66.782v66.782h-267.132v-66.782h-66.782v-267.13h66.782v-66.784h267.132v66.784h66.782z" />
<glyph unicode="&#xe91e;" d="M768 826.434h66.782v-66.782h-66.782v66.782z" />
<glyph unicode="&#xe91f;" d="M834.782 893.218h66.782v-66.782h-66.782v66.782z" />
<glyph unicode="&#xe920;" d="M300.522 826.434h66.782v-66.782h-66.782v66.782z" />
<glyph unicode="&#xe921;" d="M233.74 893.218h66.782v-66.782h-66.782v66.782z" />
<glyph unicode="&#xe922;" d="M367.304 425.74h-44.522v-66.784h267.132v-66.782h66.782v-155.826h133.564v66.782h-66.782v89.044h-66.782v66.782h44.522v66.784h66.782v267.13h-66.782v-267.13h-267.132v267.13h-66.782z" />
<glyph unicode="&#xe923;" d="M434.086 759.652h267.13v-66.782h-267.13v66.782z" />
<glyph unicode="&#xe924;" d="M523.13 960h66.782v-133.566h-66.782v133.566z" />
<glyph unicode="&#xe925;" d="M834.782 626.086h133.566v-66.782h-133.566v66.782z" />
<glyph unicode="&#xe926;" d="M166.956 626.086h133.566v-66.782h-133.566v66.782z" />
<glyph unicode="&#xe927;" d="M790.26 136.348h66.782v-133.566h-66.782v133.566z" />
<glyph unicode="&#xe928;" d="M122.434 136.348h-66.782v-133.566h66.782v-66.782h667.826v66.782h-667.826z" />
<glyph unicode="&#xe929;" d="M256 358.956h66.782v-66.782h-66.782v66.782z" />
<glyph unicode="&#xe92a;" d="M189.218 136.348h66.782v-66.782h66.782v66.782h-66.782v155.826h-66.782v-89.044h-66.784v-66.782z" />
<glyph unicode="&#xe92b;" d="M589.914 136.348h66.782v-66.782h-66.782v66.782z" />
<glyph unicode="&#xe92c;" d="M957.218 692.87v66.782h-66.794v66.782h-66.766v22.262h-0.006v44.522h-66.782v66.782h-311.652v-66.782h-66.784l0.010-44.522v-22.262h-66.802v-66.782h-66.784v-66.782h-66.772v-133.566h66.784v-66.782h467.478v-66.782h244.87v66.782h66.782v200.348z" />
<glyph unicode="&#xe92d;" d="M957.218 247.652v66.782h-66.784l-0.014 66.784h-111.29l-0.016 111.304h-66.782v66.782h-66.766v66.782h-267.132v-66.782h-66.782v-66.782h-66.782v-111.304h-111.32v-66.784h-66.768v-66.782h-66.782v-178.086h66.782v-66.784h66.784v-66.782h756.868v66.782h66.784v66.784h66.782v178.086z" />
<glyph unicode="&#xe92e;" d="M66.782 69.566h66.782v-66.782h-66.782v66.782z" />
<glyph unicode="&#xe92f;" d="M244.87 314.434h66.782v-66.782h66.782v66.782h-66.782v178.088h-66.782v-111.304h-111.304v-66.784z" />
<glyph unicode="&#xe930;" d="M66.782 247.652h66.784v66.782h-66.784v-66.782h-66.782v-178.086h66.782z" />
<glyph unicode="&#xe931;" d="M779.13 381.218v111.304h-66.782v66.782h-66.782v-66.782h66.782v-178.088h178.086v66.784z" />
<glyph unicode="&#xe932;" d="M890.434 69.566h66.782v-66.782h-66.782v66.782z" />
<glyph unicode="&#xe933;" d="M957.218 247.652h66.782v-178.086h-66.782v178.086z" />
<glyph unicode="&#xe934;" d="M311.652 559.304h66.782v-66.782h-66.782v66.782z" />
<glyph unicode="&#xe935;" d="M66.782 314.434h66.782v-66.782h-66.782v66.782z" />
<glyph unicode="&#xe936;" d="M311.652 247.652h66.782v66.782h-66.782z" />
<glyph unicode="&#xe937;" d="M66.782 69.566v178.086h-66.782v-178.090h66.782v-66.78h66.784v66.784z" />
<glyph unicode="&#xe938;" d="M378.434 626.086h267.13v-66.782h-267.13v66.782z" />
<glyph unicode="&#xe939;" d="M244.87 314.434h66.782v178.088h-66.782v-111.304h-111.304v-66.784z" />
<glyph unicode="&#xe93a;" d="M957.218 69.566h-66.784v-66.784h66.784v66.78h66.782v178.088h-66.782z" />
<glyph unicode="&#xe93b;" d="M133.566 2.782h756.87v-66.782h-756.87v66.782z" />
<glyph unicode="&#xe93c;" d="M712.348 492.522v-178.088h178.086v66.784h-111.304v111.304h-66.782v66.782h-66.782v-66.782z" />
<glyph unicode="&#xe93d;" d="M890.434 314.434h66.782v-66.782h-66.782v66.782z" />
<glyph unicode="&#xe93e;" d="M645.566 314.434h66.782v-66.782h-66.782v66.782z" />
<glyph unicode="&#xe93f;" d="M445.218 759.652h66.782v-66.782h-66.782v66.782z" />
<glyph unicode="&#xe940;" d="M378.434 759.652h66.784v133.566h-66.784v-66.784h-66.782v-66.782z" />
<glyph unicode="&#xe941;" d="M244.87 692.87h66.782v66.782h-66.782v-66.782h-66.784v-133.566h66.784z" />
<glyph unicode="&#xe942;" d="M957.218 692.87v66.782h-66.784v66.782h-66.782v66.784h-66.782v66.782h-311.652v-66.782h311.652v-133.566h133.564v-66.782h66.784v-200.348h66.782v200.348z" />
<glyph unicode="&#xe943;" d="M890.434 492.522h66.782v-66.782h-66.782v66.782z" />
<glyph unicode="&#xe944;" d="M690.086 759.652h66.782v-66.782h-66.782v66.782z" />
<glyph unicode="&#xe945;" d="M779.13 893.218v66.782h-267.13v-66.782h-66.782v-66.784h-66.784v-289.39h267.132v-44.522h200.348v133.564h-200.348v133.566h200.348v133.566z" />
<glyph unicode="&#xe946;" d="M957.218 203.13v66.784h-178.088v155.826h-66.782v66.782h-400.696v-66.782h-66.782v-155.826h-178.088v-66.784h-66.782v-133.564h66.782v-66.784h66.784v-66.782h756.868v66.782h66.784v66.784h66.782v133.564z" />
<glyph unicode="&#xe947;" d="M311.652 492.522h66.782v-66.782h-66.782v66.782z" />
<glyph unicode="&#xe948;" d="M66.782 269.914h66.782v-66.782h-66.782v66.782z" />
<glyph unicode="&#xe949;" d="M311.652 269.914h66.782v-66.782h-66.782v66.782z" />
<glyph unicode="&#xe94a;" d="M66.782 69.566v133.564h-66.782v-133.564h66.782v-66.784h66.784v66.784z" />
<glyph unicode="&#xe94b;" d="M645.566 559.304h-200.348v267.13h-66.784v-333.912h267.132z" />
<glyph unicode="&#xe94c;" d="M311.652 269.914v155.826h-66.782v-89.044h-111.304v-66.782h111.304z" />
<glyph unicode="&#xe94d;" d="M957.218 203.13v-133.564h-66.784v-66.784h66.784v66.784h66.782v133.564z" />
<glyph unicode="&#xe94e;" d="M133.566 2.782h756.87v-66.782h-756.87v66.782z" />
<glyph unicode="&#xe94f;" d="M890.434 269.914h66.782v-66.782h-66.782v66.782z" />
<glyph unicode="&#xe950;" d="M645.566 269.914h66.782v-66.782h-66.782v66.782z" />
<glyph unicode="&#xe951;" d="M445.218 893.218h66.782v-66.782h-66.782v66.782z" />
<glyph unicode="&#xe952;" d="M512 960h267.13v-66.782h-267.13v66.782z" />
<glyph unicode="&#xe953;" d="M779.13 492.522h66.784v133.564h-200.348v133.566h-66.784v-133.566h66.784v-66.782h133.564z" />
<glyph unicode="&#xe954;" d="M645.566 826.434v-66.782h200.348v133.566h-66.784v-66.784z" />
<glyph unicode="&#xe955;" d="M645.566 492.522v-66.782h66.782v-155.826h178.086v66.782h-111.304v155.826h-66.782z" />
<glyph unicode="&#xe956;" d="M957.218 225.398v66.782h-133.566v89.038h-66.798v66.782h-66.782v66.782h-356.158v-66.782h-66.784v-66.782h-66.782v-89.038h-133.566v-66.782h-66.782v-222.616h66.782v-66.782h890.436v66.782h66.782v222.616z" />
<glyph unicode="&#xe957;" d="M756.87 692.87v66.782h-267.13v-66.782h-66.784v-244.87h267.13v-66.782h66.784v66.782h66.782v244.87z" />
<glyph unicode="&#xe958;" d="M267.13 448h66.782v-66.782h-66.782v66.782z" />
<glyph unicode="&#xe959;" d="M66.784 225.392h200.346v-66.784h66.784v66.784h-66.784v155.826h-66.782v-89.044h-133.566v-66.782h-66.78v-222.61h66.782z" />
<glyph unicode="&#xe95a;" d="M957.218 225.392h66.782v-222.608h-66.782v222.608z" />
<glyph unicode="&#xe95b;" d="M66.782 2.782h890.434v-66.782h-890.434v66.782z" />
<glyph unicode="&#xe95c;" d="M756.87 381.218v-155.826h200.348v66.782h-133.566v89.044h-66.782v66.782h66.782v244.87h-66.782v-244.87h-66.784v-66.782z" />
<glyph unicode="&#xe95d;" d="M690.086 225.392h66.782v-66.782h-66.782v66.782z" />
<glyph unicode="&#xe95e;" d="M823.652 826.434h66.782v-66.782h-66.782v66.782z" />
<glyph unicode="&#xe95f;" d="M890.434 893.218h66.782v-66.782h-66.782v66.782z" />
<glyph unicode="&#xe960;" d="M356.174 826.434h66.782v-66.782h-66.782v66.782z" />
<glyph unicode="&#xe961;" d="M289.392 893.218h66.782v-66.782h-66.782v66.782z" />
<glyph unicode="&#xe962;" d="M422.956 514.782h-89.042v-66.782h356.172v66.782h-200.346v178.088h-66.784z" />
<glyph unicode="&#xe963;" d="M489.74 759.652h267.13v-66.782h-267.13v66.782z" />
<glyph unicode="&#xe964;" d="M578.782 960h66.782v-133.566h-66.782v133.566z" />
<glyph unicode="&#xe965;" d="M890.434 648.348h133.566v-66.782h-133.566v66.782z" />
<glyph unicode="&#xe966;" d="M222.608 648.348h133.566v-66.782h-133.566v66.782z" />
<glyph unicode="&#xe967;" d="M957.218 692.87v66.782h66.782v133.566h-66.782v66.782h-578.784v-66.794h-66.772v-890.442h66.772v-66.764h133.566v66.764h66.79v289.404h378.428v66.788h66.77v133.566h-66.77v66.776h-378.428v133.572z" />
<glyph unicode="&#xe968;" d="M511.994 692.87h0.006v-133.572h-0.006v-66.782h0.006v-0.008l445.218 0.008v66.782h-378.436v133.572h378.436v66.782h-445.224z" />
<glyph unicode="&#xe969;" d="M378.434 960h578.782v-66.782h-578.782v66.782z" />
<glyph unicode="&#xe96a;" d="M378.434 2.782h133.566v-66.782h-133.566v66.782z" />
<glyph unicode="&#xe96b;" d="M311.652 893.218h66.782v-890.434h-66.782v890.434z" />
<glyph unicode="&#xe96c;" d="M957.218 893.218h66.782v-133.566h-66.782v133.566z" />
<glyph unicode="&#xe96d;" d="M957.218 492.522h66.782v-133.566h-66.782v133.566z" />
<glyph unicode="&#xe96e;" d="M578.784 358.954l-66.784-0.004v-66.782h0.002v-289.394h66.782v289.394h378.434v66.782h-378.434z" />
<glyph unicode="&#xe96f;" d="M0 893.218h66.782v-111.304h-66.782v111.304z" />
<glyph unicode="&#xe970;" d="M66.782 960h111.304v-66.782h-111.304v66.782z" />
<glyph unicode="&#xe971;" d="M66.782 781.914h111.304v-66.782h-111.304v66.782z" />
<glyph unicode="&#xe972;" d="M178.086 893.218h66.782v-111.304h-66.782v111.304z" />
<glyph unicode="&#xe973;" d="M1024 626.086h-66.782v133.566h-66.784v66.782h-66.782v66.784h-133.566v66.782h-356.172v-66.782h-133.566v-66.784h-66.782v-66.782h-66.784v-133.566h-66.782v-356.172h66.782v-133.566h66.784v-66.782h66.782v-66.784h133.566v-66.782h356.172v66.782h133.566v66.784h66.782v66.782h66.784v133.566h66.782z" />
<glyph unicode="&#xe974;" d="M890.434 448h-66.782v-66.782h-178.086v66.782h-66.784v178.086h66.784v66.784h178.086v-66.784h66.782z" />
<glyph unicode="&#xe975;" d="M690.086 247.652v66.782h-111.304v-66.782h-66.782v-111.304h66.782v-66.782h111.304v66.782h66.784v111.304z" />
<glyph unicode="&#xe976;" d="M133.566 826.434h66.782v-66.782h-66.782v66.782z" />
<glyph unicode="&#xe977;" d="M133.566 136.348h66.782v-66.782h-66.782v66.782z" />
<glyph unicode="&#xe978;" d="M200.348 893.218h133.566v-66.782h-133.566v66.782z" />
<glyph unicode="&#xe979;" d="M333.914 960h356.174v-66.782h-356.174v66.782z" />
<glyph unicode="&#xe97a;" d="M333.914 2.782h356.174v-66.782h-356.174v66.782z" />
<glyph unicode="&#xe97b;" d="M690.086 893.218h133.566v-66.782h-133.566v66.782z" />
<glyph unicode="&#xe97c;" d="M890.434 759.652h66.782v-133.566h-66.782v133.566z" />
<glyph unicode="&#xe97d;" d="M957.218 626.086h66.782v-356.174h-66.782v356.174z" />
<glyph unicode="&#xe97e;" d="M890.434 269.914h66.782v-133.566h-66.782v133.566z" />
<glyph unicode="&#xe97f;" d="M66.782 759.652h66.782v-133.566h-66.782v133.566z" />
<glyph unicode="&#xe980;" d="M0 626.086h66.782v-356.174h-66.782v356.174z" />
<glyph unicode="&#xe981;" d="M66.782 269.914h66.782v-133.566h-66.782v133.566z" />
<glyph unicode="&#xe982;" d="M200.348 69.566h133.566v-66.782h-133.566v66.782z" />
<glyph unicode="&#xe983;" d="M690.086 69.566h133.566v-66.782h-133.566v66.782z" />
<glyph unicode="&#xe984;" d="M823.652 826.434h66.782v-66.782h-66.782v66.782z" />
<glyph unicode="&#xe985;" d="M823.652 136.348h66.782v-66.782h-66.782v66.782z" />
<glyph unicode="&#xe986;" d="M333.914 826.434h356.174v-66.782h-356.174v66.782z" />
<glyph unicode="&#xe987;" d="M200.348 759.652v-133.566h66.782v66.784h66.784v66.782h-66.784z" />
<glyph unicode="&#xe988;" d="M133.566 626.086h66.782v-155.826h-66.782v155.826z" />
<glyph unicode="&#xe989;" d="M133.566 403.478h66.782v-66.782h-66.782v66.782z" />
<glyph unicode="&#xe98a;" d="M445.218 314.434v66.784h-66.784v66.782h-244.868v-66.782h-66.784v-66.784h-66.782v-244.868h66.782v-66.784h66.784v-66.782h244.868v66.782h66.784v66.784h66.782v244.868z" />
<glyph unicode="&#xe98b;" d="M801.392 336.696v66.782h-155.826v-66.782h-66.784v-155.826h66.784v-66.784h155.826v66.784h66.782v155.826z" />
<glyph unicode="&#xe98c;" d="M400.696 737.392v66.782h-155.826v-66.782h-66.784v-155.826h66.784v-66.784h155.826v66.784h66.782v155.826z" />
<glyph unicode="&#xe98d;" d="M66.782 381.218h66.782v-66.782h-66.782v66.782z" />
<glyph unicode="&#xe98e;" d="M378.434 381.218h66.782v-66.782h-66.782v66.782z" />
<glyph unicode="&#xe98f;" d="M66.782 69.566h66.782v-66.782h-66.782v66.782z" />
<glyph unicode="&#xe990;" d="M378.434 69.566h66.782v-66.782h-66.782v66.782z" />
<glyph unicode="&#xe991;" d="M0 314.434h66.782v-244.87h-66.782v244.87z" />
<glyph unicode="&#xe992;" d="M133.566 448h244.87v-66.782h-244.87v66.782z" />
<glyph unicode="&#xe993;" d="M133.566 2.782h244.87v-66.782h-244.87v66.782z" />
<glyph unicode="&#xe994;" d="M445.218 314.434h66.782v-244.87h-66.782v244.87z" />
<glyph unicode="&#xe995;" d="M756.87 960h66.782v-66.782h-66.782v66.782z" />
<glyph unicode="&#xe996;" d="M690.086 893.218h66.782v-66.782h-66.782v66.782z" />
<glyph unicode="&#xe997;" d="M623.304 826.434h66.782v-66.782h-66.782v66.782z" />
<glyph unicode="&#xe998;" d="M556.522 759.652h66.782v-66.782h-66.782v66.782z" />
<glyph unicode="&#xe999;" d="M957.218 870.956h66.782v-66.782h-66.782v66.782z" />
<glyph unicode="&#xe99a;" d="M890.434 804.174h66.782v-66.782h-66.782v66.782z" />
<glyph unicode="&#xe99b;" d="M823.652 737.392h66.782v-66.782h-66.782v66.782z" />
<glyph unicode="&#xe99c;" d="M756.87 670.608h66.782v-66.782h-66.782v66.782z" />
<glyph unicode="&#xe99d;" d="M690.086 603.826h66.782v-66.782h-66.782v66.782z" />
<glyph unicode="&#xe99e;" d="M623.304 537.044h66.782v-66.782h-66.782v66.782z" />
<glyph unicode="&#xe99f;" d="M578.782 336.696h66.782v-155.826h-66.782v155.826z" />
<glyph unicode="&#xe9a0;" d="M645.566 403.478h155.826v-66.782h-155.826v66.782z" />
<glyph unicode="&#xe9a1;" d="M645.566 180.87h155.826v-66.782h-155.826v66.782z" />
<glyph unicode="&#xe9a2;" d="M801.392 336.696h66.782v-155.826h-66.782v155.826z" />
<glyph unicode="&#xe9a3;" d="M178.086 737.392h66.782v-155.826h-66.782v155.826z" />
<glyph unicode="&#xe9a4;" d="M244.87 804.174h155.826v-66.782h-155.826v66.782z" />
<glyph unicode="&#xe9a5;" d="M244.87 581.566h155.826v-66.782h-155.826v66.782z" />
<glyph unicode="&#xe9a6;" d="M400.696 737.392h66.782v-155.826h-66.782v155.826z" />
<glyph unicode="&#xe9a7;" d="M890.434 826.434v66.784h-111.304v66.782h-400.696v-66.782h-111.304v-66.784h-66.782v-66.782h-66.782v-111.304h-66.77v-400.696h66.77v-111.304h66.782v-66.782h66.782v-66.784h111.304v-66.782h400.696l0.004 66.782h111.306v66.784h66.77l0.008 133.564h-400.696v66.784h-66.782v66.782h-66.772v222.608h66.772v66.782h66.782v66.784h400.696v133.564z" />
<glyph unicode="&#xe9a8;" d="M556.522 759.652v-66.782h400.696v133.564h-66.784v-66.782z" />
<glyph unicode="&#xe9a9;" d="M267.13 893.218h111.304v-66.782h-111.304v66.782z" />
<glyph unicode="&#xe9aa;" d="M200.348 826.434h66.782v-66.782h-66.782v66.782z" />
<glyph unicode="&#xe9ab;" d="M133.566 759.652h66.782v-111.304h-66.782v111.304z" />
<glyph unicode="&#xe9ac;" d="M133.566 247.652h66.782v-111.304h-66.782v111.304z" />
<glyph unicode="&#xe9ad;" d="M200.348 136.348h66.782v-66.782h-66.782v66.782z" />
<glyph unicode="&#xe9ae;" d="M267.13 69.566h111.304v-66.782h-111.304v66.782z" />
<glyph unicode="&#xe9af;" d="M378.434 960h400.696v-66.782h-400.696v66.782z" />
<glyph unicode="&#xe9b0;" d="M378.434 2.782h400.696v-66.782h-400.696v66.782z" />
<glyph unicode="&#xe9b1;" d="M66.782 648.348h66.782v-400.696h-66.782v400.696z" />
<glyph unicode="&#xe9b2;" d="M779.13 893.218h111.304v-66.782h-111.304v66.782z" />
<glyph unicode="&#xe9b3;" d="M957.218 203.13v0h-400.696v-66.782h333.912v-66.782h66.784z" />
<glyph unicode="&#xe9b4;" d="M422.956 336.696v222.608h-66.782v-222.608h66.782v-66.782h66.784v66.782z" />
<glyph unicode="&#xe9b5;" d="M489.74 269.914h66.782v-66.782h-66.782v66.782z" />
<glyph unicode="&#xe9b6;" d="M422.956 626.086h66.782v-66.782h-66.782v66.782z" />
<glyph unicode="&#xe9b7;" d="M489.74 692.87h66.782v-66.782h-66.782v66.782z" />
<glyph unicode="&#xe9b8;" d="M779.13 69.566h111.304v-66.782h-111.304v66.782z" />
<glyph unicode="&#xe9b9;" d="M823.648 425.75v133.563h-66.781v133.563h-66.781v133.561h-66.779v66.781h-66.781v66.781h-89.043v-66.781h-66.781v-66.781h-66.781v-133.561h-66.779v-133.563h-66.781v-133.563h-66.781v-289.386h66.781v-66.781h66.773v-66.777h0.008v-0.002l66.813 0.002v-66.797h356.099v66.797h0.034v-0.002l66.787 0.002v66.777h66.775v66.781h66.781v289.386z" />
<glyph unicode="&#xe9ba;" d="M200.348 559.313h66.781v-133.563h-66.781v133.563z" />
<glyph unicode="&#xe9bb;" d="M133.575 136.364h66.781v-66.781h66.781v-66.781l66.783 0.002v-66.795h356.133v66.797h66.821v66.779h66.775v66.781h66.783v289.384h-66.783v133.563h-66.781v133.563h-66.781v133.561h-66.781v66.781h-66.781v66.781h-89.041v-66.781h-66.781v-66.781h-66.781v-133.563h66.781v133.563h66.781v-133.563h-66.781v-133.563h-66.779v133.563h-66.781v-133.563h66.781v-133.563h-66.779v-89.041h-66.781v89.041h-66.781v-289.386h-0.006zM200.356 203.146v66.781h66.781v-66.781h-66.781z" />
<glyph unicode="&#xe9bc;" d="M200.348 559.291h66.781v-133.563h-66.781v133.563z" />
<glyph unicode="&#xe9bd;" d="M267.13 692.852h66.781v-133.563h-66.781v133.563z" />
<glyph unicode="&#xe9be;" d="M333.911 826.415h66.781v-133.563h-66.781v133.563z" />
<glyph unicode="&#xe9bf;" d="M400.693 893.197h66.781v-66.781h-66.781v66.781z" />
<glyph unicode="&#xe9c0;" d="M467.474 959.986h89.041v-66.781h-89.041v66.781z" />
<glyph unicode="&#xe9c1;" d="M756.86 559.291h66.781v-133.563h-66.781v133.563z" />
<glyph unicode="&#xe9c2;" d="M690.079 692.852h66.781v-133.563h-66.781v133.563z" />
<glyph unicode="&#xe9c3;" d="M623.297 826.415h66.781v-133.563h-66.781v133.563z" />
<glyph unicode="&#xe9c4;" d="M556.516 893.197h66.781v-66.781h-66.781v66.781z" />
<glyph unicode="&#xe9c5;" d="M690.079 69.561h66.781v-66.781h-66.781v66.781z" />
<glyph unicode="&#xe9c6;" d="M756.86 136.342h66.781v-66.781h-66.781v66.781z" />
<glyph unicode="&#xe9c7;" d="M333.911 2.779h356.167v-66.781h-356.167v66.781z" />
<glyph unicode="&#xe9c8;" d="M823.64 425.728h66.781v-289.386h-66.781v289.386z" />
<glyph unicode="&#xe9c9;" d="M267.13 69.561h66.781v-66.781h-66.781v66.781z" />
<glyph unicode="&#xe9ca;" d="M200.348 136.342h66.781v-66.781h-66.781v66.781z" />
<glyph unicode="&#xe9cb;" d="M133.569 425.728h66.781v-289.386h-66.781v289.386z" />
<glyph unicode="&#xe9cc;" d="M1024 358.956h-1024v-244.87h155.826v-178.086h712.348v178.086h155.826z" />
<glyph unicode="&#xe9cd;" d="M734.6 893.218v66.782h-378.434v-66.782h-66.784v-66.784h-66.782v-66.782l-66.774-0.006v-333.914h66.774v-66.776h578.782v133.566h-267.13v66.782h-66.774v133.566h66.774v66.782h267.13v133.566z" />
<glyph unicode="&#xe9ce;" d="M289.392 893.218h66.782v-66.782h-66.782v66.782z" />
<glyph unicode="&#xe9cf;" d="M222.608 826.434h66.782v-66.782h-66.782v66.782z" />
<glyph unicode="&#xe9d0;" d="M356.174 960h378.434v-66.782h-378.434v66.782z" />
<glyph unicode="&#xe9d1;" d="M155.826 759.652h66.782v-333.914h-66.782v333.914z" />
<glyph unicode="&#xe9d2;" d="M534.26 826.434v-66.782h267.132v133.566h-66.784v-66.784z" />
<glyph unicode="&#xe9d3;" d="M467.478 759.652h66.782v-66.782h-66.782v66.782z" />
<glyph unicode="&#xe9d4;" d="M467.478 559.304h66.782v-66.782h-66.782v66.782z" />
<glyph unicode="&#xe9d5;" d="M400.696 692.87h66.782v-133.566h-66.782v133.566z" />
<glyph unicode="&#xe9d6;" d="M801.392 358.956v133.566h-267.132v-66.782h200.348v-66.784h-445.216v66.784h-66.784v-66.784h-222.608v-66.782h1024v66.782z" />
<glyph unicode="&#xe9d7;" d="M155.826 2.782h712.348v-66.782h-712.348v66.782z" />
<glyph unicode="&#xe9d8;" d="M66.782 180.87h556.522v-66.782h-556.522v66.782z" />
<glyph unicode="&#xe9d9;" d="M756.87 180.87h200.348v-66.782h-200.348v66.782z" />
<glyph unicode="&#xe9da;" d="M111.304 136.348h66.782v-66.782h-66.782v66.782z" />
<glyph unicode="&#xe9db;" d="M356.174 136.348h66.782v-66.782h-66.782v66.782z" />
<glyph unicode="&#xe9dc;" d="M578.782 136.348h66.782v-66.782h-66.782v66.782z" />
<glyph unicode="&#xe9dd;" d="M845.914 136.348h66.782v-66.782h-66.782v66.782z" />
<glyph unicode="&#xe9de;" d="M0 2.782h66.782v-66.782h-66.782v66.782z" />
<glyph unicode="&#xe9df;" d="M467.478 2.782h66.782v-66.782h-66.782v66.782z" />
<glyph unicode="&#xe9e0;" d="M244.87 2.782h66.782v-66.782h-66.782v66.782z" />
<glyph unicode="&#xe9e1;" d="M712.348 2.782h66.782v-66.782h-66.782v66.782z" />
<glyph unicode="&#xe9e2;" d="M957.218 2.782h66.782v-66.782h-66.782v66.782z" />
<glyph unicode="&#xe9e3;" d="M957.218 581.572v66.782h-66.798l0.014 66.22h-111.32v111.86h-66.782v66.784h-66.766v66.782h-267.132v-66.782h-66.782v-66.784h-66.782v-111.304h-111.32v-66.776h-66.768v-66.782h-66.782v-178.094h66.782v-66.782h66.784v-66.782h756.868v66.782h66.784v66.782h66.782v178.094z" />
<glyph unicode="&#xe9e4;" d="M311.652 893.218h66.782v-66.782h-66.782v66.782z" />
<glyph unicode="&#xe9e5;" d="M66.782 648.348h66.782v-66.782h-66.782v66.782z" />
<glyph unicode="&#xe9e6;" d="M66.782 403.478v178.088h-66.782v-178.088h66.782v-66.782h66.784v66.782z" />
<glyph unicode="&#xe9e7;" d="M378.434 960h267.13v-66.782h-267.13v66.782z" />
<glyph unicode="&#xe9e8;" d="M244.87 648.348h66.782v-66.782h66.782v66.782h-66.782v178.086h-66.782v-111.304h-111.304v-66.782z" />
<glyph unicode="&#xe9e9;" d="M957.218 581.566v-178.088h-66.784v-66.782h66.784v66.782h66.782v178.088z" />
<glyph unicode="&#xe9ea;" d="M133.566 336.696h756.87v-66.782h-756.87v66.782z" />
<glyph unicode="&#xe9eb;" d="M712.348 826.434v-178.086h178.086v66.782h-111.304v111.304h-66.782v66.784h-66.782v-66.784z" />
<glyph unicode="&#xe9ec;" d="M890.434 648.348h66.782v-66.782h-66.782v66.782z" />
<glyph unicode="&#xe9ed;" d="M645.566 648.348h66.782v-66.782h-66.782v66.782z" />
<glyph unicode="&#xe9ee;" d="M267.13 203.13h66.782v-66.782h-66.782v66.782z" />
<glyph unicode="&#xe9ef;" d="M200.348 136.348h66.782v-66.782h-66.782v66.782z" />
<glyph unicode="&#xe9f0;" d="M133.566 69.566h66.782v-66.782h-66.782v66.782z" />
<glyph unicode="&#xe9f1;" d="M66.782 2.782h66.782v-66.782h-66.782v66.782z" />
<glyph unicode="&#xe9f2;" d="M489.74 203.13h66.782v-66.782h-66.782v66.782z" />
<glyph unicode="&#xe9f3;" d="M422.956 136.348h66.782v-66.782h-66.782v66.782z" />
<glyph unicode="&#xe9f4;" d="M356.174 69.566h66.782v-66.782h-66.782v66.782z" />
<glyph unicode="&#xe9f5;" d="M289.392 2.782h66.782v-66.782h-66.782v66.782z" />
<glyph unicode="&#xe9f6;" d="M734.608 203.13h66.782v-66.782h-66.782v66.782z" />
<glyph unicode="&#xe9f7;" d="M667.826 136.348h66.782v-66.782h-66.782v66.782z" />
<glyph unicode="&#xe9f8;" d="M601.044 69.566h66.782v-66.782h-66.782v66.782z" />
<glyph unicode="&#xe9f9;" d="M534.26 2.782h66.782v-66.782h-66.782v66.782z" />
<glyph unicode="&#xe9fa;" d="M66.782 203.13h66.782v-66.782h-66.782v66.782z" />
<glyph unicode="&#xe9fb;" d="M0 136.348h66.782v-66.782h-66.782v66.782z" />
<glyph unicode="&#xe9fc;" d="M957.218 203.13h66.782v-66.782h-66.782v66.782z" />
<glyph unicode="&#xe9fd;" d="M890.434 136.348h66.782v-66.782h-66.782v66.782z" />
<glyph unicode="&#xe9fe;" d="M823.652 69.566h66.782v-66.782h-66.782v66.782z" />
<glyph unicode="&#xe9ff;" d="M756.87 2.782h66.782v-66.782h-66.782v66.782z" />
<glyph unicode="&#xea00;" d="M957.218 581.572v66.782h-66.798l0.014 66.22h-111.32v111.86h-66.782v66.784h-66.766v66.782h-267.132v-66.782h-66.782v-66.784h-66.782v-111.304h-111.32v-66.776h-66.768v-66.782h-66.782v-178.094h66.782v-66.782h66.784v-66.782h756.868v66.782h66.784v66.782h66.782v178.094z" />
<glyph unicode="&#xea01;" d="M311.652 893.218h66.782v-66.782h-66.782v66.782z" />
<glyph unicode="&#xea02;" d="M66.782 648.348h66.782v-66.782h-66.782v66.782z" />
<glyph unicode="&#xea03;" d="M66.782 403.478v178.088h-66.782v-178.088h66.782v-66.782h66.784v66.782z" />
<glyph unicode="&#xea04;" d="M378.434 960h267.13v-66.782h-267.13v66.782z" />
<glyph unicode="&#xea05;" d="M244.87 648.348h66.782v-66.782h66.782v66.782h-66.782v178.086h-66.782v-111.304h-111.304v-66.782z" />
<glyph unicode="&#xea06;" d="M957.218 581.566v-178.088h-66.784v-66.782h66.784v66.782h66.782v178.088z" />
<glyph unicode="&#xea07;" d="M133.566 336.696h756.87v-66.782h-756.87v66.782z" />
<glyph unicode="&#xea08;" d="M712.348 826.434v-178.086h178.086v66.782h-111.304v111.304h-66.782v66.784h-66.782v-66.784z" />
<glyph unicode="&#xea09;" d="M890.434 648.348h66.782v-66.782h-66.782v66.782z" />
<glyph unicode="&#xea0a;" d="M645.566 648.348h66.782v-66.782h-66.782v66.782z" />
<glyph unicode="&#xea0b;" d="M1024 960h-422.956v-66.782h-133.566v-66.784h-133.564v-66.782h-66.784v-66.782h-66.782v-66.786h-66.782v-133.564h-66.784v-133.568h-66.782v-422.952h289.392v400.696h66.786l-0.004 133.564h67.524v66.784l66.044-0.002-0.002 66.784h133.564v66.782h400.696z" />
<glyph unicode="&#xea0c;" d="M1024 514.782h-378.434l0.002-66.782h-66.78l-0.006-66.782h-66.78l-0.002-66.784h-66.782v-378.434h267.13v244.87h66.782v66.782h244.87v66.782z" />
<glyph unicode="&#xea0d;" d="M1024 738.876h-400.696l0.002-68.268h-133.564l-0.002-66.782h-66.782l-0.002-66.782h-66.78l-0.002-66.784h-66.778l-0.004-133.564h-66.784v-400.696h289.392v378.434h66.784l-0.002 66.784h66.786l-0.002 66.782h378.434z" />
<glyph unicode="&#xea0e;" d="M578.782 448h66.782v-66.782h-66.782v66.782z" />
<glyph unicode="&#xea0f;" d="M512 381.218h66.782v-66.782h-66.782v66.782z" />
<glyph unicode="&#xea10;" d="M422.956 603.826h66.782v-66.782h-66.782v66.782z" />
<glyph unicode="&#xea11;" d="M356.174 537.044h66.782v-66.782h-66.782v66.782z" />
<glyph unicode="&#xea12;" d="M289.392 470.26h66.782v-133.566h-66.782v133.566z" />
<glyph unicode="&#xea13;" d="M712.348 247.652h66.782v-66.782h-66.782v66.782z" />
<glyph unicode="&#xea14;" d="M645.566 2.782h-133.564v311.652h-66.782v-311.652h-155.828v333.914h-66.784v-333.914h-155.826v356.174h-66.782v-422.956h712.348v244.87h-66.782z" />
<glyph unicode="&#xea15;" d="M267.13 759.652h66.782v-66.782h-66.782v66.782z" />
<glyph unicode="&#xea16;" d="M200.348 692.87h66.782v-66.782h-66.782v66.782z" />
<glyph unicode="&#xea17;" d="M467.478 893.218h133.566v-66.782h-133.566v66.782z" />
<glyph unicode="&#xea18;" d="M333.914 826.434h133.566v-66.782h-133.566v66.782z" />
<glyph unicode="&#xea19;" d="M133.566 626.086h66.782v-133.566h-66.782v133.566z" />
<glyph unicode="&#xea1a;" d="M66.782 492.522h66.782v-133.566h-66.782v133.566z" />
<glyph unicode="&#xea1b;" d="M957.218 960h-356.172v-66.782h356.172v-155.826h-333.912v-66.784h-133.564v-66.782h133.564v66.782h333.912v-155.826h-311.65v-66.782h311.65v-133.566h-178.088v-66.782h244.87v712.348z" />
<glyph unicode="&#xea1c;" d="M623.304 2.782v133.566h66.782v-66.782h133.566v66.782h66.782v133.566h-66.782v66.782h133.566v66.782h66.782v89.044h-66.782v66.782h-133.566v66.782h66.782v133.566h-66.782v66.782h-133.566v-66.782h-66.782v133.566h-66.782v66.782h-89.044v-66.782h-66.782v-133.566h-66.782v66.782h-133.566v-66.782h-66.782v-133.566h66.782v-66.782h-133.566v-66.782h-66.782v-89.044h66.782v-66.782h133.566v-66.782h-66.782v-133.566h66.782v-66.782h133.566v66.782h66.782v-133.566h66.782v-66.782h89.044v66.782h-0.004z" />
<glyph unicode="&#xea1d;" d="M467.478 960h89.044v-66.782h-89.044v66.782z" />
<glyph unicode="&#xea1e;" d="M200.348 826.434h133.566v-66.782h-133.566v66.782z" />
<glyph unicode="&#xea1f;" d="M133.566 759.652h66.782v-133.566h-66.782v133.566z" />
<glyph unicode="&#xea20;" d="M333.914 559.304h-66.784v66.782h-66.782v-66.782h-133.566v-66.782h267.132z" />
<glyph unicode="&#xea21;" d="M400.696 692.87v-66.784h66.782v267.132h-66.782v-133.566h-66.782v-66.782z" />
<glyph unicode="&#xea22;" d="M690.086 826.434h133.566v-66.782h-133.566v66.782z" />
<glyph unicode="&#xea23;" d="M823.652 759.652h66.782v-133.566h-66.782v133.566z" />
<glyph unicode="&#xea24;" d="M756.87 559.304h-66.784v-66.782h267.132v66.782h-133.566v66.782h-66.782z" />
<glyph unicode="&#xea25;" d="M556.522 692.87v-66.784h66.782v66.784h66.782v66.782h-66.782v133.566h-66.782v-133.566z" />
<glyph unicode="&#xea26;" d="M467.478 2.782h89.044v-66.782h-89.044v66.782z" />
<glyph unicode="&#xea27;" d="M200.348 136.348h133.566v-66.782h-133.566v66.782z" />
<glyph unicode="&#xea28;" d="M133.566 269.914h66.782v-133.566h-66.782v133.566z" />
<glyph unicode="&#xea29;" d="M267.13 336.696h66.784v66.782h-267.132v-66.782h133.566v-66.782h66.782z" />
<glyph unicode="&#xea2a;" d="M467.478 203.13v66.784h-66.782v-66.784h-66.782v-66.782h66.782v-133.566h66.782v133.566z" />
<glyph unicode="&#xea2b;" d="M690.086 136.348h133.566v-66.782h-133.566v66.782z" />
<glyph unicode="&#xea2c;" d="M823.652 269.914h66.782v-133.566h-66.782v133.566z" />
<glyph unicode="&#xea2d;" d="M690.086 336.696h66.784v-66.782h66.782v66.782h133.566v66.782h-267.132z" />
<glyph unicode="&#xea2e;" d="M623.304 203.13v66.784h-66.782v-267.132h66.782v133.566h66.782v66.782z" />
<glyph unicode="&#xea2f;" d="M0 492.522h66.782v-89.044h-66.782v89.044z" />
<glyph unicode="&#xea30;" d="M957.218 492.522h66.782v-89.044h-66.782v89.044z" />
<glyph unicode="&#xea31;" d="M957.218 581.572v66.782h-66.798l0.014 66.22h-111.32v111.86h-66.782v66.784h-66.766v66.782h-267.132v-66.782h-66.782v-66.784h-66.782v-111.304h-111.32v-66.776h-66.768v-66.782h-66.782v-178.094h66.782v-66.782h66.784v-66.782h756.868v66.782h66.784v66.782h66.782v178.094z" />
<glyph unicode="&#xea32;" d="M267.13 136.348h-66.782v66.782h-133.566v-66.782h-66.782v-133.566h66.782v-66.782h133.566v66.782h66.782z" />
<glyph unicode="&#xea33;" d="M645.566 136.348h-66.784v66.782h-133.564v-66.782h-66.784v-133.566h66.784v-66.782h133.564v66.782h66.784z" />
<glyph unicode="&#xea34;" d="M1024 136.348h-66.782v66.782h-133.566v-66.782h-66.782v-133.566h66.782v-66.782h133.566v66.782h66.782z" />
<glyph unicode="&#xea35;" d="M311.652 893.218h66.782v-66.782h-66.782v66.782z" />
<glyph unicode="&#xea36;" d="M66.782 648.348h66.782v-66.782h-66.782v66.782z" />
<glyph unicode="&#xea37;" d="M66.782 403.478h66.782v-66.782h-66.782v66.782z" />
<glyph unicode="&#xea38;" d="M378.434 960h267.13v-66.782h-267.13v66.782z" />
<glyph unicode="&#xea39;" d="M244.87 648.348h66.782v-66.782h66.782v66.782h-66.782v178.086h-66.782v-111.304h-111.304v-66.782z" />
<glyph unicode="&#xea3a;" d="M0 581.566h66.782v-178.086h-66.782v178.086z" />
<glyph unicode="&#xea3b;" d="M957.218 403.478h66.782v178.088h-66.782v66.782h-66.784v-66.782h66.784z" />
<glyph unicode="&#xea3c;" d="M133.566 336.696h756.87v-66.782h-756.87v66.782z" />
<glyph unicode="&#xea3d;" d="M712.348 826.434v-178.086h178.086v66.782h-111.304v111.304h-66.782v66.784h-66.782v-66.784z" />
<glyph unicode="&#xea3e;" d="M645.566 648.348h66.782v-66.782h-66.782v66.782z" />
<glyph unicode="&#xea3f;" d="M890.434 403.478h66.782v-66.782h-66.782v66.782z" />
<glyph unicode="&#xea40;" d="M0 136.348h66.782v-133.566h-66.782v133.566z" />
<glyph unicode="&#xea41;" d="M66.782 203.13h133.566v-66.782h-133.566v66.782z" />
<glyph unicode="&#xea42;" d="M200.348 2.782h-133.566v-66.782h133.566v66.782h66.782v133.566h-66.782z" />
<glyph unicode="&#xea43;" d="M378.434 136.348h66.782v-133.566h-66.782v133.566z" />
<glyph unicode="&#xea44;" d="M445.218 203.13h133.566v-66.782h-133.566v66.782z" />
<glyph unicode="&#xea45;" d="M578.782 2.782h-133.564v-66.782h133.564v66.782h66.784v133.566h-66.784z" />
<glyph unicode="&#xea46;" d="M756.87 136.348h66.782v-133.566h-66.782v133.566z" />
<glyph unicode="&#xea47;" d="M823.652 203.13h133.566v-66.782h-133.566v66.782z" />
<glyph unicode="&#xea48;" d="M957.218 136.348v-133.566h-133.566v-66.782h133.566v66.782h66.782v133.566z" />
<glyph unicode="&#xea49;" d="M712.336 893.216v66.782h-333.912v-66.782h-66.782v-66.782h-66.784v-66.788h-66.772v-311.652h66.772v-66.778h66.784v-66.782h66.782v-66.782h333.912v66.782h66.784v133.564h-222.61v66.784h-66.77v178.086h66.77v66.784h222.61v133.564z" />
<glyph unicode="&#xea4a;" d="M311.652 893.216h66.782v-66.782h-66.782v66.782z" />
<glyph unicode="&#xea4b;" d="M244.87 826.434h66.782v-66.782h-66.782v66.782z" />
<glyph unicode="&#xea4c;" d="M244.87 447.998v311.654h-66.784v-311.654h66.784v-66.782h66.782v66.782z" />
<glyph unicode="&#xea4d;" d="M311.652 381.216h66.782v-66.782h-66.782v66.782z" />
<glyph unicode="&#xea4e;" d="M489.742 514.782v178.084h-66.784v-178.086h66.782v-66.782h66.782v66.784z" />
<glyph unicode="&#xea4f;" d="M489.74 759.652h66.782v-66.782h-66.782v66.782z" />
<glyph unicode="&#xea50;" d="M378.434 959.998h333.914v-66.782h-333.914v66.782z" />
<glyph unicode="&#xea51;" d="M712.348 893.216v-66.782h-155.826v-66.782h222.608v133.564z" />
<glyph unicode="&#xea52;" d="M556.522 447.998v-66.782h155.826v-66.782h66.782v133.564h-66.782z" />
<glyph unicode="&#xea53;" d="M378.434 314.434h333.914v-66.782h-333.914v66.782z" />
<glyph unicode="&#xea54;" d="M489.74 25.042h66.782v-89.042h-66.782v89.042z" />
<glyph unicode="&#xea55;" d="M489.74 180.868h66.782v-89.042h-66.782v89.042z" />
<glyph unicode="&#xea56;" d="M400.696 91.826h89.044v-66.782h-89.044v66.782z" />
<glyph unicode="&#xea57;" d="M556.522 91.826h89.044v-66.782h-89.044v66.782z" />
<glyph unicode="&#xea58;" d="M89.044 91.826h66.782v-89.042h-66.782v89.042z" />
<glyph unicode="&#xea59;" d="M89.044 247.652h66.782v-89.042h-66.782v89.042z" />
<glyph unicode="&#xea5a;" d="M0 158.608h89.044v-66.782h-89.044v66.782z" />
<glyph unicode="&#xea5b;" d="M155.826 158.608h89.044v-66.782h-89.044v66.782z" />
<glyph unicode="&#xea5c;" d="M868.174 91.826h66.782v-89.042h-66.782v89.042z" />
<glyph unicode="&#xea5d;" d="M868.174 247.652h66.782v-89.042h-66.782v89.042z" />
<glyph unicode="&#xea5e;" d="M779.13 158.608h89.044v-66.782h-89.044v66.782z" />
<glyph unicode="&#xea5f;" d="M934.956 158.608h89.044v-66.782h-89.044v66.782z" />
<glyph unicode="&#xea60;" d="M89.044 158.608h66.782v-66.782h-66.782v66.782z" />
<glyph unicode="&#xea61;" d="M868.174 158.608h66.782v-66.782h-66.782v66.782z" />
<glyph unicode="&#xea62;" d="M489.74 91.826h66.782v-66.782h-66.782v66.782z" />
<glyph unicode="&#xea63;" d="M133.566 69.566h66.782v-66.782h-66.782v66.782z" />
<glyph unicode="&#xea64;" d="M66.782 2.782h66.782v-66.782h-66.782v66.782z" />
<glyph unicode="&#xea65;" d="M267.13 2.782h66.782v-66.782h-66.782v66.782z" />
<glyph unicode="&#xea66;" d="M734.608 203.13h66.782v-66.782h-66.782v66.782z" />
<glyph unicode="&#xea67;" d="M66.782 203.13h66.782v-66.782h-66.782v66.782z" />
<glyph unicode="&#xea68;" d="M0 136.348h66.782v-66.782h-66.782v66.782z" />
<glyph unicode="&#xea69;" d="M957.218 203.13h66.782v-66.782h-66.782v66.782z" />
<glyph unicode="&#xea6a;" d="M890.434 136.348h66.782v-66.782h-66.782v66.782z" />
<glyph unicode="&#xea6b;" d="M823.652 69.566h66.782v-66.782h-66.782v66.782z" />
<glyph unicode="&#xea6c;" d="M756.87 2.782h66.782v-66.782h-66.782v66.782z" />
<glyph unicode="&#xea6d;" d="M957.218 603.826v66.782h-66.798l0.014 66.784h-111.32v89.042h-66.782v66.784h-66.766v66.782h-267.132v-66.782h-66.782v-66.784h-66.782v-89.042h-111.304v-66.784h-66.784v-66.782h-66.782v-200.348h66.782v-66.782h66.784v-66.782h756.868v66.782h66.784v66.782h66.782v200.348z" />
<glyph unicode="&#xea6e;" d="M311.652 893.218h66.782v-66.782h-66.782v66.782z" />
<glyph unicode="&#xea6f;" d="M66.782 670.608h66.782v-66.782h-66.782v66.782z" />
<glyph unicode="&#xea70;" d="M66.782 403.478h66.782v-66.782h-66.782v66.782z" />
<glyph unicode="&#xea71;" d="M378.434 960h267.13v-66.782h-267.13v66.782z" />
<glyph unicode="&#xea72;" d="M311.652 670.608v-66.782h66.782v66.782h-66.782v155.826h-66.782v-89.042h-111.304v-66.784h111.304z" />
<glyph unicode="&#xea73;" d="M0 603.826h66.782v-200.348h-66.782v200.348z" />
<glyph unicode="&#xea74;" d="M779.13 737.392v89.042h-66.782v66.784h-66.782v-66.784h66.782v-155.826h178.086v66.784z" />
<glyph unicode="&#xea75;" d="M957.218 603.826v66.782h-66.784v-66.782h66.784v-200.348h66.782v200.348z" />
<glyph unicode="&#xea76;" d="M133.566 336.696h66.782v-66.782h-66.782v66.782z" />
<glyph unicode="&#xea77;" d="M801.392 336.696h89.044v-66.782h-89.044v66.782z" />
<glyph unicode="&#xea78;" d="M645.566 670.608h66.782v-66.782h-66.782v66.782z" />
<glyph unicode="&#xea79;" d="M890.434 403.478h66.782v-66.782h-66.782v66.782z" />
<glyph unicode="&#xea7a;" d="M734.608 537.044h-400.694v-267.13h-66.782v-200.348h133.566v-133.566h133.566v66.782h66.782v66.782h66.782v133.566h-66.782v66.782h66.782v66.782h66.782v200.35z" />
<glyph unicode="&#xea7b;" d="M534.26 69.566h66.782v-66.782h-66.782v66.782z" />
<glyph unicode="&#xea7c;" d="M467.478 69.566v66.782h-133.564v133.566h-66.784v-200.348h133.566v-133.566h133.564v66.782h-66.782z" />
<glyph unicode="&#xea7d;" d="M534.26 203.13v-66.782h66.784v-66.782h66.782v133.564h-66.782v66.784h-66.784z" />
<glyph unicode="&#xea7e;" d="M601.044 336.696h66.782v-66.782h-66.782v66.782z" />
<glyph unicode="&#xea7f;" d="M333.914 470.26v-200.346h66.782v200.346h267.13v-133.564h66.782v200.348h-400.694z" />
<glyph unicode="&#xea80;" d="M957.218 603.826v66.782h-66.798l0.014 66.784h-111.32v89.042h-66.782v66.784h-66.766v66.782h-267.132v-66.782h-66.782v-66.784h-66.782v-89.042h-111.304v-66.784h-66.784v-66.782h-66.782v-200.348h66.782v-66.782h66.784v-66.782h756.868v66.782h66.784v66.782h66.782v200.348z" />
<glyph unicode="&#xea81;" d="M311.652 893.218h66.782v-66.782h-66.782v66.782z" />
<glyph unicode="&#xea82;" d="M66.782 670.608h66.782v-66.782h-66.782v66.782z" />
<glyph unicode="&#xea83;" d="M66.782 403.478h66.782v-66.782h-66.782v66.782z" />
<glyph unicode="&#xea84;" d="M378.434 960h267.13v-66.782h-267.13v66.782z" />
<glyph unicode="&#xea85;" d="M311.652 670.608v-66.782h66.782v66.782h-66.782v155.826h-66.782v-89.042h-111.304v-66.784h111.304z" />
<glyph unicode="&#xea86;" d="M0 603.826h66.782v-200.348h-66.782v200.348z" />
<glyph unicode="&#xea87;" d="M779.13 737.392v89.042h-66.782v66.784h-66.782v-66.784h66.782v-155.826h178.086v66.784z" />
<glyph unicode="&#xea88;" d="M957.218 603.826v66.782h-66.784v-66.782h66.784v-200.348h66.782v200.348z" />
<glyph unicode="&#xea89;" d="M133.566 336.696h66.782v-66.782h-66.782v66.782z" />
<glyph unicode="&#xea8a;" d="M801.392 336.696h89.044v-66.782h-89.044v66.782z" />
<glyph unicode="&#xea8b;" d="M645.566 670.608h66.782v-66.782h-66.782v66.782z" />
<glyph unicode="&#xea8c;" d="M890.434 403.478h66.782v-66.782h-66.782v66.782z" />
<glyph unicode="&#xea8d;" d="M734.608 537.044h-400.694v-267.13h-66.782v-200.348h133.566v-133.566h133.566v66.782h66.782v66.782h66.782v133.566h-66.782v66.782h66.782v66.782h66.782v200.35z" />
<glyph unicode="&#xea8e;" d="M534.26 69.566h66.782v-66.782h-66.782v66.782z" />
<glyph unicode="&#xea8f;" d="M467.478 69.566v66.782h-133.564v133.566h-66.784v-200.348h133.566v-133.566h133.564v66.782h-66.782z" />
<glyph unicode="&#xea90;" d="M534.26 203.13v-66.782h66.784v-66.782h66.782v133.564h-66.782v66.784h-66.784z" />
<glyph unicode="&#xea91;" d="M601.044 336.696h66.782v-66.782h-66.782v66.782z" />
<glyph unicode="&#xea92;" d="M333.914 470.26v-200.346h66.782v200.346h267.13v-133.564h66.782v200.348h-400.694z" />
<glyph unicode="&#xea93;" d="M1024 537.044v66.782h-222.608v133.566h-133.566v222.608h-66.782v-155.826h-178.088v155.826h-66.782v-222.608h-133.566v-133.566h-222.608v-66.782h155.838v-178.088h-155.838v-66.782h222.608v-133.566h133.566v-222.608h66.782v155.826h178.088v-155.826h66.782v222.608h133.566v133.566h222.608v66.782h-155.818v178.088z" />
<glyph unicode="&#xea94;" d="M801.392 804.174h66.782v-66.782h-66.782v66.782z" />
<glyph unicode="&#xea95;" d="M868.174 870.956h66.782v-66.782h-66.782v66.782z" />
<glyph unicode="&#xea96;" d="M155.826 804.174h66.782v-66.782h-66.782v66.782z" />
<glyph unicode="&#xea97;" d="M89.044 870.956h66.782v-66.782h-66.782v66.782z" />
<glyph unicode="&#xea98;" d="M155.826 158.608h66.782v-66.782h-66.782v66.782z" />
<glyph unicode="&#xea99;" d="M89.044 91.826h66.782v-66.782h-66.782v66.782z" />
<glyph unicode="&#xea9a;" d="M801.392 158.608h66.782v-66.782h-66.782v66.782z" />
<glyph unicode="&#xea9b;" d="M868.174 91.826h66.782v-66.782h-66.782v66.782z" />
<glyph unicode="&#xea9c;" d="M1024 537.044v66.782h-222.608v-311.652h222.608v66.782h-155.826v178.088z" />
<glyph unicode="&#xea9d;" d="M801.392 804.174h66.782v-66.782h-66.782v66.782z" />
<glyph unicode="&#xea9e;" d="M868.174 870.956h66.782v-66.782h-66.782v66.782z" />
<glyph unicode="&#xea9f;" d="M155.826 804.174h66.782v-66.782h-66.782v66.782z" />
<glyph unicode="&#xeaa0;" d="M89.044 870.956h66.782v-66.782h-66.782v66.782z" />
<glyph unicode="&#xeaa1;" d="M155.826 158.608h66.782v-66.782h-66.782v66.782z" />
<glyph unicode="&#xeaa2;" d="M89.044 91.826h66.782v-66.782h-66.782v66.782z" />
<glyph unicode="&#xeaa3;" d="M801.392 158.608h66.782v-66.782h-66.782v66.782z" />
<glyph unicode="&#xeaa4;" d="M868.174 91.826h66.782v-66.782h-66.782v66.782z" />
<glyph unicode="&#xeaa5;" d="M289.392 225.392v0 66.782h-66.784v311.652h66.784v66.782h66.782v66.784h-133.566v-133.566h-222.608v-66.782h155.826v-178.088h-155.826v-66.782h222.608v-133.566h133.566v66.784z" />
<glyph unicode="&#xeaa6;" d="M667.826 781.914v0 178.086h-66.782v-155.826h-178.088v155.826h-66.782v-222.608h311.652z" />
<glyph unicode="&#xeaa7;" d="M356.174 91.826v0-155.826h66.782v155.826h178.088v-155.826h66.782v222.608h-311.652z" />
<glyph unicode="&#xeaa8;" d="M667.826 670.608h66.782v-66.782h66.784v133.566h-133.566z" />
<glyph unicode="&#xeaa9;" d="M801.392 225.392v66.782h-66.784v-66.782h-66.782v-66.784h133.566z" />
<glyph unicode="&#xeaaa;" d="M1024 358.956h-1024v-244.87h155.826v-178.086h712.348v178.086h155.826z" />
<glyph unicode="&#xeaab;" d="M868.152 603.812v0.014h-66.784v66.782h-66.782v66.784h-66.782v66.782h-311.652v-66.782h-66.782v-66.784h-66.784v-66.782l-66.76-0.014v-289.39h712.348v289.39z" />
<glyph unicode="&#xeaac;" d="M222.608 603.826h66.784v66.782h66.782v66.784h-133.566v-66.784z" />
<glyph unicode="&#xeaad;" d="M667.826 781.914v178.086h-66.782v-155.826h-178.088v155.826h-66.782v-222.608h311.652z" />
<glyph unicode="&#xeaae;" d="M734.608 670.608v-66.782h66.784v133.566h-133.566v-66.784z" />
<glyph unicode="&#xeaaf;" d="M1024 537.044v66.782h-222.608v-244.87h-578.784v244.87h-222.608v-66.782h155.826v-178.088h-155.826v-66.782h1024v66.782h-155.826v178.088z" />
<glyph unicode="&#xeab0;" d="M801.392 804.174h66.782v-66.782h-66.782v66.782z" />
<glyph unicode="&#xeab1;" d="M868.174 870.956h66.782v-66.782h-66.782v66.782z" />
<glyph unicode="&#xeab2;" d="M155.826 804.174h66.782v-66.782h-66.782v66.782z" />
<glyph unicode="&#xeab3;" d="M89.044 870.956h66.782v-66.782h-66.782v66.782z" />
<glyph unicode="&#xeab4;" d="M66.782 180.87h556.522v-66.782h-556.522v66.782z" />
<glyph unicode="&#xeab5;" d="M756.87 180.87h200.348v-66.782h-200.348v66.782z" />
<glyph unicode="&#xeab6;" d="M155.826 2.782h712.348v-66.782h-712.348v66.782z" />
<glyph unicode="&#xeab7;" d="M823.652 403.48h-66.83v66.78h-66.782v422.958h-66.782v66.782h-222.61v-66.782h-66.782v-422.958h-66.782v-66.78h-66.736v-333.912l66.736-0.002v-66.784h66.782v-66.782h356.174v66.782h66.782v66.784l66.83 0.002z" />
<glyph unicode="&#xeab8;" d="M267.13 470.26h66.782v-66.782h-66.782v66.782z" />
<glyph unicode="&#xeab9;" d="M267.13 69.566h66.782v-66.782h-66.782v66.782z" />
<glyph unicode="&#xeaba;" d="M333.914 2.782h356.174v-66.782h-356.174v66.782z" />
<glyph unicode="&#xeabb;" d="M200.348 403.478h66.782v-333.914h-66.782v333.914z" />
<glyph unicode="&#xeabc;" d="M690.086 470.26h66.782v-66.782h-66.782v66.782z" />
<glyph unicode="&#xeabd;" d="M690.086 69.566h66.782v-66.782h-66.782v66.782z" />
<glyph unicode="&#xeabe;" d="M756.87 403.478h66.782v-333.914h-66.782v333.914z" />
<glyph unicode="&#xeabf;" d="M400.696 960h222.608v-66.782h-222.608v66.782z" />
<glyph unicode="&#xeac0;" d="M333.914 893.218h66.782v-422.956h-66.782v422.956z" />
<glyph unicode="&#xeac1;" d="M623.304 893.218h66.782v-422.956h-66.782v422.956z" />
<glyph unicode="&#xeac2;" d="M623.304 336.696v66.782h-66.782v244.87h-89.044v-244.87h-66.782v-66.782h-66.782v-200.348h66.782v-66.782h222.608v66.782h66.782v200.348z" />
<glyph unicode="&#xeac3;" d="M823.652 403.48h-66.83v66.78h-66.782v422.958h-66.782v66.782h-222.61v-66.782h-66.782v-422.958h-66.782v-66.78h-66.736v-333.912l66.736-0.002v-66.784h66.782v-66.782h356.174v66.782h66.782v66.784l66.83 0.002z" />
<glyph unicode="&#xeac4;" d="M267.13 470.26h66.782v-66.782h-66.782v66.782z" />
<glyph unicode="&#xeac5;" d="M267.13 69.566h66.782v-66.782h-66.782v66.782z" />
<glyph unicode="&#xeac6;" d="M333.914 2.782h356.174v-66.782h-356.174v66.782z" />
<glyph unicode="&#xeac7;" d="M200.348 403.478h66.782v-333.914h-66.782v333.914z" />
<glyph unicode="&#xeac8;" d="M690.086 470.26h66.782v-66.782h-66.782v66.782z" />
<glyph unicode="&#xeac9;" d="M690.086 69.566h66.782v-66.782h-66.782v66.782z" />
<glyph unicode="&#xeaca;" d="M756.87 403.478h66.782v-333.914h-66.782v333.914z" />
<glyph unicode="&#xeacb;" d="M400.696 960h222.608v-66.782h-222.608v66.782z" />
<glyph unicode="&#xeacc;" d="M333.914 893.218h66.782v-422.956h-66.782v422.956z" />
<glyph unicode="&#xeacd;" d="M623.304 893.218h66.782v-422.956h-66.782v422.956z" />
<glyph unicode="&#xeace;" d="M623.304 336.696v66.782h-222.608v-66.782h-66.782v-200.348h66.782v-66.782h222.608v66.782h66.782v200.348z" />
<glyph unicode="&#xeacf;" d="M823.652 403.48h-66.83v66.78h-66.782v422.958h-66.782v66.782h-222.61v-66.782h-66.782v-422.958h-66.782v-66.78h-66.736v-333.912l66.736-0.002v-66.784h66.782v-66.782h356.174v66.782h66.782v66.784l66.83 0.002z" />
<glyph unicode="&#xead0;" d="M267.13 470.26h66.782v-66.782h-66.782v66.782z" />
<glyph unicode="&#xead1;" d="M267.13 69.566h66.782v-66.782h-66.782v66.782z" />
<glyph unicode="&#xead2;" d="M333.914 2.782h356.174v-66.782h-356.174v66.782z" />
<glyph unicode="&#xead3;" d="M200.348 403.478h66.782v-333.914h-66.782v333.914z" />
<glyph unicode="&#xead4;" d="M690.086 470.26h66.782v-66.782h-66.782v66.782z" />
<glyph unicode="&#xead5;" d="M690.086 69.566h66.782v-66.782h-66.782v66.782z" />
<glyph unicode="&#xead6;" d="M756.87 403.478h66.782v-333.914h-66.782v333.914z" />
<glyph unicode="&#xead7;" d="M400.696 960h222.608v-66.782h-222.608v66.782z" />
<glyph unicode="&#xead8;" d="M333.914 893.218h66.782v-422.956h-66.782v422.956z" />
<glyph unicode="&#xead9;" d="M623.304 893.218h66.782v-422.956h-66.782v422.956z" />
<glyph unicode="&#xeada;" d="M333.914 247.652v-111.304h66.782v-66.782h222.608v66.782h66.782v111.304z" />
<glyph unicode="&#xeadb;" d="M823.652 403.48h-66.832v66.78h-66.782v422.958h-66.782v66.782h-222.61v-66.782h-66.782v-422.958h-66.782v-66.78h-66.734v-333.912l66.734-0.002v-66.784h66.782v-66.782h356.174v66.782h66.782v66.784l66.832 0.002z" />
<glyph unicode="&#xeadc;" d="M267.13 470.26h66.782v-66.782h-66.782v66.782z" />
<glyph unicode="&#xeadd;" d="M267.13 69.566h66.782v-66.782h-66.782v66.782z" />
<glyph unicode="&#xeade;" d="M333.914 2.782h356.174v-66.782h-356.174v66.782z" />
<glyph unicode="&#xeadf;" d="M200.348 403.478h66.782v-333.914h-66.782v333.914z" />
<glyph unicode="&#xeae0;" d="M690.086 470.26h66.782v-66.782h-66.782v66.782z" />
<glyph unicode="&#xeae1;" d="M690.086 69.566h66.782v-66.782h-66.782v66.782z" />
<glyph unicode="&#xeae2;" d="M756.87 403.478h66.782v-333.914h-66.782v333.914z" />
<glyph unicode="&#xeae3;" d="M400.696 960h222.608v-66.782h-222.608v66.782z" />
<glyph unicode="&#xeae4;" d="M333.914 893.218h66.782v-422.956h-66.782v422.956z" />
<glyph unicode="&#xeae5;" d="M623.304 893.218h66.782v-422.956h-66.782v422.956z" />
<glyph unicode="&#xeae6;" d="M623.304 336.696v66.782h-66.782v422.956h-89.044v-422.956h-66.782v-66.782h-66.782v-200.348h66.782v-66.782h222.608v66.782h66.782v200.348z" />
<glyph unicode="&#xeae7;" d="M222.608 960v-200.348h-66.782v-200.348h-66.782v-267.13h178.086v-356.174h133.566v66.782h66.782v66.784h66.782v66.782h66.784v66.782h66.782v66.784h66.782v66.782h66.784v155.826h-200.348v66.782h66.782v66.782h66.782v66.784h66.784v66.782h66.782v66.782h66.782v133.566z" />
<glyph unicode="&#xeae8;" d="M400.696 2.782h-66.782v356.174h-178.088v200.348h-66.782v-267.13h178.086v-356.174h133.566v66.782h66.782v66.784h-66.782z" />
<glyph unicode="&#xeae9;" d="M467.478 136.348h66.782v-66.782h-66.782v66.782z" />
<glyph unicode="&#xeaea;" d="M534.26 203.13h66.782v-66.782h-66.782v66.782z" />
<glyph unicode="&#xeaeb;" d="M601.044 269.914h66.782v-66.782h-66.782v66.782z" />
<glyph unicode="&#xeaec;" d="M667.826 336.696h66.782v-66.782h-66.782v66.782z" />
<glyph unicode="&#xeaed;" d="M601.044 559.304h-66.784v-66.782h-66.782v-66.782h267.13v-89.044h66.784v155.826h-200.348v66.782h66.782v66.782h-66.782z" />
<glyph unicode="&#xeaee;" d="M667.826 692.87h66.782v-66.782h-66.782v66.782z" />
<glyph unicode="&#xeaef;" d="M155.826 759.652h66.782v-200.348h-66.782v200.348z" />
<glyph unicode="&#xeaf0;" d="M734.608 759.652h66.782v-66.782h-66.782v66.782z" />
<glyph unicode="&#xeaf1;" d="M801.392 826.434h66.782v-66.782h-66.782v66.782z" />
<glyph unicode="&#xeaf2;" d="M868.174 960h-645.566v-200.348h66.784v133.566h578.782v-66.784h66.782v133.566z" />
<glyph unicode="&#xeaf3;" d="M957.218 826.434h-66.784v66.784h-66.782v66.782h-623.304v-66.782h-66.782v-66.784h-66.784v-155.826h66.784v-66.782h66.782v-66.782h623.304v66.782h66.782v66.782h66.784z" />
<glyph unicode="&#xeaf4;" d="M200.348 960h623.304v-66.782h-623.304v66.782z" />
<glyph unicode="&#xeaf5;" d="M957.218 470.264v356.174h-66.782v66.78h-66.782v-66.782h66.782v-155.826h-66.782v-66.782h-623.306v66.782h-66.782v155.824h66.782v66.784h-66.782v-66.782h-66.784v-422.956h66.782v-133.566h66.782v-66.782h66.782v-66.782h66.782v-66.782h66.782v-66.782h155.826v-66.786h333.912v133.564h-66.782v66.782h-66.782v200.35h66.782v66.782h66.782v66.784h66.788z" />
<glyph unicode="&#xeaf6;" d="M200.348 269.914h66.782v-66.782h-66.782v66.782z" />
<glyph unicode="&#xeaf7;" d="M756.87 403.478h66.782v-66.782h-66.782v66.782z" />
<glyph unicode="&#xeaf8;" d="M756.87 336.696h-66.784v-133.566h-133.564v-66.782h200.348v66.782z" />
<glyph unicode="&#xeaf9;" d="M756.87 136.348h66.782v-66.782h-66.782v66.782z" />
<glyph unicode="&#xeafa;" d="M267.13 203.13h66.782v-66.782h-66.782v66.782z" />
<glyph unicode="&#xeafb;" d="M333.914 136.348h66.782v-66.782h-66.782v66.782z" />
<glyph unicode="&#xeafc;" d="M400.696 69.566h155.826v-66.782h-155.826v66.782z" />
<glyph unicode="&#xeafd;" d="M823.652 470.26h66.782v-66.782h-66.782v66.782z" />
<glyph unicode="&#xeafe;" d="M823.652-64h66.782v133.566h-66.782v-66.784h-267.13v-66.782z" />
<glyph unicode="&#xeaff;" d="M133.566 403.478h66.782v-133.566h-66.782v133.566z" />
<glyph unicode="&#xeb00;" d="M267.13 470.26h289.392v-66.782h-289.392v66.782z" />
<glyph unicode="&#xeb01;" d="M400.696 336.696h222.608v-66.782h-222.608v66.782z" />
<glyph unicode="&#xeb02;" d="M133.566 670.608v155.826h66.782v66.784h-66.782v-66.784h-66.784v-422.956h66.784v200.348h66.782v66.782z" />
<glyph unicode="&#xeb03;" d="M200.348 960h623.304v-66.782h-623.304v66.782z" />
<glyph unicode="&#xeb04;" d="M957.218 470.264v356.174h-66.784v66.78h-66.782v-66.784h66.782v-155.826h-66.782v-66.782h-623.304v-66.782h623.304v66.782h66.782v-133.562z" />
<glyph unicode="&#xeb05;" d="M957.218 626.086v0 66.784h-66.784v66.782h-66.782v66.782h-133.566v66.784h-155.826v66.782h-66.782v-66.782h-133.564v-66.784h-133.566v-66.782h-66.782v-66.782h-66.784v-66.784h-66.782v-244.868h66.782v66.782h155.826v-66.782h66.784v66.782h445.216v-66.782h66.784v66.782h155.826v-66.782h66.782v244.868z" />
<glyph unicode="&#xeb06;" d="M756.87 581.566v89.042h-66.784v89.044h-66.782v133.566h-222.608v-133.566h-66.782v-89.044h-66.784v-89.042h-44.522v-200.348h66.784v66.782h445.216v-66.782h66.784v200.348z" />
<glyph unicode="&#xeb07;" d="M667.826 69.566h66.782v-66.782h-66.782v66.782z" />
<glyph unicode="&#xeb08;" d="M534.26 2.782h133.566v-66.782h-133.566v66.782z" />
<glyph unicode="&#xeb09;" d="M467.478 448h66.782v-445.218h-66.782v445.218z" />
<glyph unicode="&#xeb0a;" d="M133.566 759.652h66.782v-66.782h-66.782v66.782z" />
<glyph unicode="&#xeb0b;" d="M200.348 826.434h133.566v-66.782h-133.566v66.782z" />
<glyph unicode="&#xeb0c;" d="M690.086 826.434h133.566v-66.782h-133.566v66.782z" />
<glyph unicode="&#xeb0d;" d="M66.782 692.87h66.782v-66.782h-66.782v66.782z" />
<glyph unicode="&#xeb0e;" d="M690.086 893.218h-155.826v66.782h-66.782v-66.782h-133.564v-66.784h356.172z" />
<glyph unicode="&#xeb0f;" d="M66.782 514.782v111.304h-66.782v-244.868h66.782v66.782h155.826v66.782z" />
<glyph unicode="&#xeb10;" d="M289.392 514.782h178.086v-66.782h-178.086v66.782z" />
<glyph unicode="&#xeb11;" d="M534.26 514.782h200.348v-66.782h-200.348v66.782z" />
<glyph unicode="&#xeb12;" d="M823.652 759.652h66.782v-66.782h-66.782v66.782z" />
<glyph unicode="&#xeb13;" d="M890.434 692.87h66.782v-66.782h-66.782v66.782z" />
<glyph unicode="&#xeb14;" d="M1024 626.086h-66.782v-111.304h-155.826v-66.782h155.826v-66.782h66.782v66.782z" />
<glyph unicode="&#xeb15;" d="M222.608 448h66.782v-66.782h-66.782v66.782z" />
<glyph unicode="&#xeb16;" d="M734.608 448h66.782v-66.782h-66.782v66.782z" />
<glyph unicode="&#xeb17;" d="M0 960v-512h823.652v66.782h66.782v-66.782h-66.782v-66.782h-823.652v-66.782h890.434v-66.782h-890.434v-133.566h578.782v-66.782h-578.782v-111.306h1024v1024h-1024zM823.652 759.652v66.782h-200.348v-66.782h-66.782v-178.086h133.566v-66.782h-133.566v66.782h-66.782v178.086h66.782v66.782h66.782v66.784h200.348v-66.782h66.782v-66.782h-66.782zM756.87 69.566h-66.782v111.304h66.782v-111.304zM957.218 69.566h-66.782v-66.782h-133.566v66.782h133.566v178.086h66.782v-178.086zM957.218 514.782h-66.782v244.87h66.782v-244.87z" />
<glyph unicode="&#xeb18;" d="M690.086 180.87h66.782v-111.304h-66.782v111.304z" />
<glyph unicode="&#xeb19;" d="M756.87 69.566h133.566v-66.782h-133.566v66.782z" />
<glyph unicode="&#xeb1a;" d="M890.434 247.652h66.782v-178.086h-66.782v178.086z" />
<glyph unicode="&#xeb1b;" d="M0 314.434h890.434v-66.782h-890.434v66.782z" />
<glyph unicode="&#xeb1c;" d="M0 114.086h645.566v-66.782h-645.566v66.782z" />
<glyph unicode="&#xeb1d;" d="M823.652 826.434h66.782v-66.782h-66.782v66.782z" />
<glyph unicode="&#xeb1e;" d="M556.522 826.434h66.782v-66.782h-66.782v66.782z" />
<glyph unicode="&#xeb1f;" d="M556.522 581.566h133.566v-66.782h-133.566v66.782z" />
<glyph unicode="&#xeb20;" d="M823.652 514.782h66.782v-66.782h-66.782v66.782z" />
<glyph unicode="&#xeb21;" d="M489.74 759.652h66.782v-178.086h-66.782v178.086z" />
<glyph unicode="&#xeb22;" d="M623.304 893.218h200.348v-66.782h-200.348v66.782z" />
<glyph unicode="&#xeb23;" d="M890.434 759.652h66.782v-244.87h-66.782v244.87z" />
<glyph unicode="&#xeb24;" d="M0 448h823.652v-66.782h-823.652v66.782z" />
<glyph unicode="&#xeb25;" d="M768.335 447.999c0-163.675-151.143-285.017-310.725-250.546-115.45 24.953-201.943 127.646-201.943 250.546 0 141.564 114.77 256.334 256.334 256.334 141.574 0 256.334-114.804 256.334-256.334z" />
<glyph unicode="&#xeb26;" d="M768.335 447.999c0-163.675-151.143-285.017-310.725-250.546-103.347 189.763 62.97 419.733 279.664 372.926 19.806-36.365 31.060-78.060 31.060-122.379z" />
<glyph unicode="&#xeb27;" d="M512.001 746.388c-164.532 0-298.389-133.856-298.389-298.389s133.856-298.389 298.389-298.389 298.389 133.856 298.389 298.389-133.858 298.389-298.389 298.389zM512.001 233.72c-118.154 0-214.279 96.125-214.279 214.279s96.125 214.279 214.279 214.279 214.279-96.125 214.279-214.279-96.125-214.279-214.279-214.279z" />
<glyph unicode="&#xeb28;" d="M512.001 811.807c23.226 0 42.055 18.829 42.055 42.055v64.083c0 23.226-18.829 42.055-42.055 42.055s-42.055-18.829-42.055-42.055v-64.083c0-23.226 18.827-42.055 42.055-42.055z" />
<glyph unicode="&#xeb29;" d="M106.138 490.054h-64.083c-23.226 0-42.055-18.829-42.055-42.055s18.829-42.055 42.055-42.055h64.083c23.226 0 42.055 18.829 42.055 42.055s-18.829 42.055-42.055 42.055z" />
<glyph unicode="&#xeb2a;" d="M512.001 84.193c-23.226 0-42.055-18.829-42.055-42.055v-64.083c0-23.226 18.829-42.055 42.055-42.055s42.055 18.829 42.055 42.055v64.083c0 23.226-18.829 42.055-42.055 42.055z" />
<glyph unicode="&#xeb2b;" d="M981.945 490.054h-64.083c-23.226 0-42.055-18.829-42.055-42.055s18.829-42.055 42.055-42.055h64.083c23.226 0 42.055 18.829 42.055 42.055s-18.829 42.055-42.055 42.055z" />
<glyph unicode="&#xeb2c;" d="M802.68 798.155l-21.362-21.362c-16.423-16.423-16.423-43.052 0-59.473 16.423-16.423 43.050-16.423 59.473 0l21.362 21.362c16.423 16.423 16.423 43.052 0 59.473-16.423 16.423-43.048 16.423-59.473 0z" />
<glyph unicode="&#xeb2d;" d="M183.207 717.32c16.423-16.423 43.050-16.423 59.473 0s16.423 43.052 0 59.473l-21.362 21.362c-16.423 16.423-43.050 16.423-59.473 0s-16.423-43.052 0-59.473z" />
<glyph unicode="&#xeb2e;" d="M183.207 178.68l-21.362-21.362c-16.423-16.423-16.423-43.052 0-59.473 16.423-16.423 43.050-16.423 59.473 0l21.362 21.362c16.423 16.423 16.423 43.052 0 59.473-16.423 16.423-43.050 16.423-59.473 0z" />
<glyph unicode="&#xeb2f;" d="M840.793 178.68c-16.423 16.423-43.050 16.423-59.473 0s-16.423-43.052 0-59.473c20.076-20.076 29.462-33.678 51.099-33.678 37.13 0 56.305 45.225 29.737 71.792z" />
<glyph unicode="&#xeb30;" d="M768.335 447.999c0-150.881-130.262-270.793-283.349-254.932-128.503 13.47-229.319 122.123-229.319 254.932 0 141.564 114.77 256.334 256.334 256.334s256.334-114.77 256.334-256.334z" />
<glyph unicode="&#xeb31;" d="M484.986 193.089v-0.020c-119.976 12.576-215.341 107.921-227.917 227.897l0.020 0.020c63.503 30.34 141.885 19.205 194.493-33.404 52.607-52.611 63.741-130.991 33.404-194.493z" />
<glyph unicode="&#xeb32;" d="M512.001 746.388c-176.977 0-316.132-154.125-296.558-331.36 21.891-154.383 136.736-249.795 264.084-263.643 166.459-21.77 330.863 113.199 330.863 296.614 0 164.532-133.858 298.389-298.389 298.389zM304.897 392.969c90.332 18.404 170.556-61.338 152.070-152.072-74.002 19.682-132.388 78.068-152.070 152.072zM541.395 235.746c20.611 141.184-100.377 262.272-241.649 241.649 14.373 104.294 104.072 184.885 212.255 184.885 118.154 0 214.279-96.125 214.279-214.279 0-108.183-80.591-197.882-184.885-212.255z" />
<glyph unicode="&#xeb33;" d="M640.166 533.444c0-23.595-19.127-42.722-42.722-42.722s-42.722 19.127-42.722 42.722c0 23.595 19.127 42.722 42.722 42.722s42.722-19.127 42.722-42.722z" />
<glyph unicode="&#xeb34;" d="M212.943 789.778c0-23.595-19.127-42.722-42.722-42.722s-42.722 19.127-42.722 42.722c0 23.595 19.127 42.722 42.722 42.722s42.722-19.127 42.722-42.722z" />
<glyph unicode="&#xeb35;" d="M896.5 106.222c0-23.595-19.127-42.722-42.722-42.722s-42.722 19.127-42.722 42.722c0 23.595 19.127 42.722 42.722 42.722s42.722-19.127 42.722-42.722z" />
<glyph unicode="&#xeb36;" d="M512.001 20.11c-235.939 0-427.891 191.952-427.891 427.889 0 23.226-18.829 42.055-42.055 42.055s-42.055-18.829-42.055-42.055c0-282.969 228.994-512.001 512.001-512.001 23.226 0 42.055 18.829 42.055 42.055s-18.829 42.057-42.055 42.057z" />
<glyph unicode="&#xeb37;" d="M512.001 960c-23.226 0-42.055-18.829-42.055-42.055s18.829-42.055 42.055-42.055c235.939 0 427.891-191.952 427.891-427.891 0-23.226 18.829-42.055 42.055-42.055s42.055 18.829 42.055 42.055c-0.002 282.971-228.996 512.001-512.001 512.001z" />
<glyph unicode="&#xeb38;" d="M678.318 252.384c-80.164-68.409-192.551-79.403-283.069-32.963-106.040 54.257-162.39 176.302-130.65 294.724 48.183 180.191 270.084 251.199 413.719 128.648-119.766-102.123-120.705-287.485 0-390.409z" />
<glyph unicode="&#xeb39;" d="M395.429 219.702c-0.561-0.873-34.481 16.618-64.504 46.641-67.147 67.127-89.256 162.251-66.326 247.803 70.071 5.447 139.121-33.023 169.341-100.911 30.259-67.949 12.576-145.129-38.51-193.532z" />
<glyph unicode="&#xeb3a;" d="M705.587 610.779c19.69 16.772 19.7 47.22 0.024 64.005-166.419 141.989-422.851 60.791-480.792-146.339-0.811-2.235-1.424-4.552-1.848-6.933-48.167-189.827 95.338-372.311 289.287-372.311 71.002 0 139.283 25.059 193.354 71.191 9.37 7.992 14.763 19.692 14.759 32.006-0.008 23.134-15.456 31.701-27.426 43.671-88.441 88.441-82.411 233.718 12.642 314.71zM299.254 470.785c90.756-15.406 136.948-118.526 87.057-196.558-62.245 45.035-95.34 119.83-87.057 196.558zM613.419 258.738c-46.358-24.744-99.996-31.070-150.067-19.475 69.783 124.246 0.525 280.596-138.635 312.175 57.511 103.911 187.524 139.003 288.702 85.001-89.597-109.457-89.595-268.243 0-377.7z" />
<glyph unicode="&#xeb3b;" d="M212.943 789.778c0-23.595-19.127-42.722-42.722-42.722s-42.722 19.127-42.722 42.722c0 23.595 19.127 42.722 42.722 42.722s42.722-19.127 42.722-42.722z" />
<glyph unicode="&#xeb3c;" d="M896.5 106.222c0-23.595-19.127-42.722-42.722-42.722s-42.722 19.127-42.722 42.722c0 23.595 19.127 42.722 42.722 42.722s42.722-19.127 42.722-42.722z" />
<glyph unicode="&#xeb3d;" d="M512.001 20.11c-235.939 0-427.891 191.95-427.891 427.889 0 23.226-18.829 42.055-42.055 42.055s-42.055-18.829-42.055-42.055c0-282.969 228.994-512.001 512.001-512.001 23.226 0 42.055 18.829 42.055 42.055s-18.831 42.057-42.055 42.057z" />
<glyph unicode="&#xeb3e;" d="M512.001 960c-23.226 0-42.055-18.829-42.055-42.055s18.829-42.055 42.055-42.055c235.939 0 427.891-191.952 427.891-427.891 0-23.226 18.829-42.055 42.055-42.055s42.055 18.829 42.055 42.055c-0.002 282.967-228.996 512.001-512.001 512.001z" />
<glyph unicode="&#xeb3f;" d="M598.072 206.025c-90.257-32.042-194.914-11.936-267.148 60.318-100.11 100.090-100.11 262.401 0 362.492 71.934 71.934 175.989 92.18 265.986 60.719-99.269-35.326-170.362-130.149-170.362-241.554 0-111.845 71.633-206.969 171.523-241.975z" />
<glyph unicode="&#xeb40;" d="M611.982 245.713c-85.758 30.053-143.379 111.345-143.379 202.287 0 90.472 57.228 171.621 142.407 201.933 37.27 13.265 37.154 66.254-0.222 79.319-106.338 37.172-227.039 11.881-309.599-70.678-116.61-116.588-116.642-305.351-0.008-421.965 83.585-83.605 205.197-107.762 310.958-70.217 37.278 13.235 37.21 66.226-0.158 79.321zM360.659 296.084c-121.308 121.284-57.529 328.217 109.901 361.488-115.298-117.104-114.455-304.126 0.963-420.189-41.288 8.010-80.188 28.014-110.864 58.7z" />
<glyph unicode="&#xeb41;" d="M212.943 789.779c0-23.594-19.127-42.722-42.722-42.722s-42.722 19.127-42.722 42.722c0 23.594 19.127 42.722 42.722 42.722s42.722-19.127 42.722-42.722z" />
<glyph unicode="&#xeb42;" d="M896.5 106.221c0-23.594-19.127-42.722-42.722-42.722s-42.722 19.127-42.722 42.722c0 23.594 19.127 42.722 42.722 42.722s42.722-19.127 42.722-42.722z" />
<glyph unicode="&#xeb43;" d="M512 20.111c-235.939 0-427.891 191.95-427.891 427.889 0 23.226-18.828 42.055-42.055 42.055s-42.055-18.828-42.055-42.055c0-282.966 228.994-512 512-512 23.226 0 42.055 18.828 42.055 42.055s-18.828 42.057-42.055 42.057z" />
<glyph unicode="&#xeb44;" d="M512 960c-23.226 0-42.055-18.828-42.055-42.055s18.828-42.055 42.055-42.055c235.939 0 427.891-191.952 427.891-427.891 0-23.226 18.828-42.055 42.055-42.055s42.055 18.828 42.055 42.055c0 282.966-228.994 512-512 512z" />
<glyph unicode="&#xeb45;" d="M42.277 383.928c0-47.088 13.885-92.488 40.083-131.279 0.020-0.020 0.020-0.040 0.040-0.060 31.333-37.22 78.283-60.865 130.739-60.865h619.318c82.568 0 149.499 66.931 149.499 149.499 0 110.944-116.532 182.476-215.048 134.363-13.755 128.557-122.57 228.683-254.791 228.683-77.602 0-147.116-34.477-194.126-88.955-144.427 25.309-275.713-85.925-275.713-231.386z" />
<glyph unicode="&#xeb46;" d="M42.277 383.928c0-47.088 13.885-92.488 40.083-131.279 0.020-0.020 0.020-0.040 0.040-0.060 31.333-37.22 78.283-60.865 130.739-60.865h106.773c0 58.762 26.843 110.293 68.555 145.184 104.557 87.461 60.624 257.486-73.985 278.98-143.861 22.972-272.205-88.352-272.205-231.96z" />
<glyph unicode="&#xeb47;" d="M784.297 405.195c89.653 3.215 161.648-72.043 154.448-161.5-0.591-7.334-1.135-8.739-0.801-8.405 94.096 93.712 27.301 255.411-105.488 255.411-23.697 0-46.109-5.514-66.020-15.328-35.492-17.495-21.681-71.598 17.861-70.179z" />
<glyph unicode="&#xeb48;" d="M179.881 738.184c10.757 0 21.517 4.104 29.728 12.311 80.818 80.798 188.25 125.295 302.507 125.295 23.221 0 42.045 18.824 42.045 42.045s-18.824 42.045-42.045 42.045c-136.713 0-265.26-53.241-361.961-149.917-26.576-26.568-7.392-71.778 29.726-71.778z" />
<glyph unicode="&#xeb49;" d="M747.026 790.36c61.798 0 121.127-13.502 176.341-40.133 5.888-2.839 12.109-4.184 18.235-4.184 44.585 0 58.364 60.598 18.295 79.925-66.701 32.17-138.323 48.482-212.872 48.482-23.221 0-42.045-18.824-42.045-42.045s18.824-42.045 42.045-42.045z" />
<glyph unicode="&#xeb4a;" d="M640.252 20.209h-576.613c-23.221 0-42.045-18.824-42.045-42.045s18.824-42.045 42.045-42.045h576.613c23.221 0 42.045 18.824 42.045 42.045s-18.826 42.045-42.045 42.045z" />
<glyph unicode="&#xeb4b;" d="M981.949 20.209h-170.85c-23.221 0-42.045-18.824-42.045-42.045s18.824-42.045 42.045-42.045h170.85c23.221 0 42.045 18.824 42.045 42.045s-18.826 42.045-42.045 42.045z" />
<glyph unicode="&#xeb4c;" d="M47.651 228.917c0.803-1.177 1.666-2.314 2.583-3.406 40.571-48.191 99.946-75.831 162.903-75.831h619.318c105.618 0 191.544 85.925 191.544 191.544 0 119.395-108.063 209.188-224.965 188.632-61.409 215.631-334.652 290.957-497.016 129.926-233.598 20.738-383.634-239.773-254.366-430.866zM277.207 576.795c107 0 192.865-87.163 192.865-192.865 0-23.221 18.824-42.045 42.045-42.045s42.045 18.824 42.045 42.045c0 108.069-62.222 201.864-152.716 247.481 123.067 74.281 286.304 8.395 319.331-134.611-8.319-5.978-16.281-12.669-23.755-20.143-16.417-16.419-16.417-43.042 0-59.459 16.419-16.419 43.042-16.419 59.461 0 67.552 67.55 183.429 19.441 183.429-75.971 0-59.251-48.203-107.454-107.454-107.454h-619.318c-37.366 0-72.651 16.101-97.159 44.247-83.541 126.809 7.18 298.775 161.227 298.775z" />
<glyph unicode="&#xeb4d;" d="M981.34 745.806c0-23.182-18.924-41.71-42.106-41.638-36.734 0.116-73.484-10.58-107.234-32.088-67.022-42.698-146.044-42.846-213.34 0-67.076 42.746-146.158 42.802-213.32 0-67.302-42.85-146.324-42.694-213.34 0-33.56 21.4-70.26 32.164-107.088 32.080-23.238-0.054-42.252 18.406-42.252 41.644v23.18c0 21.656 16.814 41.674 42.68 41.674 36.54 0 73.1-10.68 106.66-32.080 67.022-42.698 146.044-42.846 213.34 0 67.076 42.746 146.158 42.802 213.32 0 67.302-42.85 146.324-42.694 213.34 0 34.028 21.684 71.102 32.378 108.138 32.084 22.828-0.182 41.202-18.842 41.202-41.67z" />
<glyph unicode="&#xeb4e;" d="M981.34 413.806c0-23.182-18.924-41.71-42.106-41.638-36.734 0.116-73.484-10.58-107.234-32.088-67.022-42.698-146.044-42.846-213.34 0-67.076 42.746-146.158 42.802-213.32 0-67.302-42.85-146.324-42.694-213.34 0-33.56 21.4-70.26 32.164-107.088 32.080-23.238-0.054-42.252 18.406-42.252 41.644v23.182c0 21.656 16.814 41.674 42.68 41.674 36.54 0 73.1-10.68 106.66-32.080 67.022-42.698 146.044-42.846 213.34 0 67.076 42.746 146.158 42.802 213.32 0 67.302-42.85 146.324-42.694 213.34 0 34.028 21.684 71.102 32.378 108.138 32.084 22.828-0.182 41.202-18.842 41.202-41.67z" />
<glyph unicode="&#xeb4f;" d="M981.34 63.138c0-23.182-18.924-41.71-42.106-41.638-36.734 0.116-73.484-10.58-107.234-32.088-67.022-42.698-146.044-42.846-213.34 0-67.076 42.746-146.158 42.802-213.32 0-67.302-42.85-146.324-42.694-213.34 0-33.56 21.4-70.26 32.164-107.088 32.080-23.238-0.054-42.252 18.406-42.252 41.644v23.182c0 21.656 16.814 41.674 42.68 41.674 36.54 0 73.1-10.68 106.66-32.080 67.022-42.698 146.044-42.846 213.34 0 67.076 42.746 146.158 42.802 213.32 0 67.302-42.85 146.324-42.694 213.34 0 34.028 21.684 71.102 32.378 108.138 32.084 22.828-0.182 41.202-18.842 41.202-41.67z" />
<glyph unicode="&#xeb50;" d="M52.12 764.836c41.428 9.58 82.35 0.612 117.312-21.682 79.648-50.742 176.334-52.296 258.478 0.002 52.122 33.216 113.528 34.826 168.192-0.010 79.174-50.408 175.882-52.604 258.468 0.010 36.79 23.446 77.342 30.944 117.282 21.686 22.594-5.242 45.162 8.83 50.402 31.428 5.24 22.596-8.832 45.162-31.428 50.402-61.524 14.264-125.946 2.662-181.392-32.672-52.4-33.382-113.936-34.552-168.202-0.002-82.652 52.672-179.44 50.362-258.45 0.010-52.828-33.634-114.366-34.312-168.202-0.016-54.086 34.488-118.032 47.33-181.38 32.686-22.6-5.224-36.686-27.78-31.46-50.382 5.224-22.598 27.77-36.682 50.38-31.46z" />
<glyph unicode="&#xeb51;" d="M990.826 516.672c-61.524 14.264-125.946 2.66-181.392-32.674-52.4-33.382-113.936-34.552-168.202-0.002-82.652 52.672-179.44 50.362-258.45 0.010-52.828-33.634-114.366-34.312-168.202-0.016-54.086 34.49-118.032 47.332-181.38 32.688-22.6-5.226-36.684-27.782-31.46-50.382 5.224-22.598 27.772-36.684 50.382-31.46 41.428 9.58 82.35 0.612 117.312-21.682 79.648-50.742 176.334-52.296 258.478 0.002 52.122 33.216 113.528 34.826 168.192-0.010 79.174-50.408 175.882-52.604 258.468 0.010 36.79 23.446 77.342 30.946 117.282 21.686 22.594-5.238 45.162 8.832 50.402 31.428 5.238 22.598-8.834 45.162-31.43 50.402z" />
<glyph unicode="&#xeb52;" d="M990.828 164.174c-61.526 14.266-125.946 2.662-181.394-32.672-52.402-33.384-113.934-34.552-168.202-0.002-82.652 52.672-179.44 50.362-258.45 0.010-52.734-33.574-114.268-34.376-168.202-0.016-54.086 34.49-118.022 47.334-181.38 32.686-22.6-5.226-36.684-27.782-31.46-50.382s27.782-36.678 50.382-31.46c41.426 9.58 82.35 0.614 117.312-21.68 79.648-50.744 176.332-52.298 258.478 0.002 52.122 33.216 113.528 34.826 168.192-0.010 82.712-52.662 179.418-50.352 258.468 0.008 36.792 23.446 77.344 30.946 117.282 21.686 22.59-5.244 45.162 8.832 50.402 31.426 5.238 22.6-8.832 45.164-31.428 50.404z" />
<glyph unicode="&#xeb53;" d="M554.666-21.334c0-23.564-19.102-42.666-42.666-42.666s-42.666 19.102-42.666 42.666c0 23.564 19.102 42.666 42.666 42.666s42.666-19.102 42.666-42.666z" />
<glyph unicode="&#xeb54;" d="M789.332 917.334c0-23.564-19.102-42.666-42.666-42.666s-42.666 19.102-42.666 42.666c0 23.564 19.102 42.666 42.666 42.666s42.666-19.102 42.666-42.666z" />
<glyph unicode="&#xeb55;" d="M554.666 661.334c0-23.564-19.102-42.666-42.666-42.666s-42.666 19.102-42.666 42.666c0 23.564 19.102 42.666 42.666 42.666s42.666-19.102 42.666-42.666z" />
<glyph unicode="&#xeb56;" d="M320 917.334c0-23.564-19.102-42.666-42.666-42.666s-42.666 19.102-42.666 42.666c0 23.564 19.102 42.666 42.666 42.666s42.666-19.102 42.666-42.666z" />
<glyph unicode="&#xeb57;" d="M789.332 566.666c0-23.564-19.102-42.666-42.666-42.666s-42.666 19.102-42.666 42.666c0 23.564 19.102 42.666 42.666 42.666s42.666-19.102 42.666-42.666z" />
<glyph unicode="&#xeb58;" d="M320 566.666c0-23.564-19.102-42.666-42.666-42.666s-42.666 19.102-42.666 42.666c0 23.564 19.102 42.666 42.666 42.666s42.666-19.102 42.666-42.666z" />
<glyph unicode="&#xeb59;" d="M554.666 331.334c0-23.564-19.102-42.666-42.666-42.666s-42.666 19.102-42.666 42.666c0 23.564 19.102 42.666 42.666 42.666s42.666-19.102 42.666-42.666z" />
<glyph unicode="&#xeb5a;" d="M789.332 234.666c0-23.564-19.102-42.666-42.666-42.666s-42.666 19.102-42.666 42.666c0 23.564 19.102 42.666 42.666 42.666s42.666-19.102 42.666-42.666z" />
<glyph unicode="&#xeb5b;" d="M320 234.666c0-23.564-19.102-42.666-42.666-42.666s-42.666 19.102-42.666 42.666c0 23.564 19.102 42.666 42.666 42.666s42.666-19.102 42.666-42.666z" />
<glyph unicode="&#xeb5c;" d="M597.627 832.549s-244.208 24.020-234.866-234.866c101.418-49.376 320.271-23.354 234.866 234.866z" />
<glyph unicode="&#xeb5d;" d="M659.305 170.205h-21.402c-22.521 0-32.704 28.272-15.281 42.542 94.815 77.658 80.683 165.409 60.576 215.483-7.731 19.252 11.055 38.751 30.492 31.495 54.665-20.405 94.17-71.895 97.025-132.969 4.003-85.551-65.776-156.551-151.409-156.551z" />
<glyph unicode="&#xeb5e;" d="M344.359 559.887c138.542-67.447 371.212-5.589 302.037 256.11 21.494 18.508 48.305 49.626 56.61 94.268 4.248 22.823-10.813 44.77-33.637 49.016-22.831 4.254-44.77-10.813-49.016-33.637-4.656-25.025-23.312-42.278-34.335-50.519-35.931 0.506-125.463-5.102-191.463-67.133-52.273-49.128-77.104-120.397-73.805-211.826 0.56-15.527 9.64-29.477 23.608-36.279zM566.14 790.548c13.029-51.684 15.954-110.59-22.111-143.879-33.561-29.351-93.339-33.274-139.163-20.151 4.814 104.105 63.102 157.554 161.273 164.030z" />
<glyph unicode="&#xeb5f;" d="M42.26 277.623c12.979 0 16.652 3.391 61.35 25.74 0.773 0.382 78.591 38.323 194.834 38.323 117.79 0 119.89-42.702 256.218-42.702 23.216 0 42.036 18.82 42.036 42.036s-18.82 42.036-42.036 42.036c-118.025 0-121.866 42.702-256.218 42.702-135.736 0-228.322-45.16-232.316-47.14l-42.7-21.35c-39.466-19.735-25.448-79.648 18.832-79.644z" />
<glyph unicode="&#xeb60;" d="M554.662 41.432c-118.025 0-121.866 42.702-256.218 42.702-135.738 0-228.322-45.16-232.316-47.14l-42.702-21.352c-39.468-19.735-25.448-79.648 18.832-79.644 13.013 0 16.742 3.435 61.352 25.74 0.773 0.382 78.591 38.325 194.834 38.325 117.792 0 119.89-42.702 256.218-42.702 23.216 0 42.036 18.82 42.036 42.036s-18.82 42.036-42.036 42.036z" />
<glyph unicode="&#xeb61;" d="M852.706 328.72c-4.778 102.305-88.802 182.445-191.287 182.445-23.216 0-42.036-18.82-42.036-42.036s18.82-42.036 42.036-42.036c57.493 0 104.627-44.934 107.305-102.295 2.858-61.188-47.2-112.554-109.429-112.554-142.485 0-152.952-3.139-220.2 19.278-32.94 10.979-70.274 23.426-140.652 23.426-135.738 0-228.322-45.16-232.316-47.14l-42.702-21.352c-20.764-10.385-29.181-35.634-18.798-56.4 10.367-20.734 35.598-29.195 56.396-18.8l42.524 21.262c2.616 1.253 81.297 38.355 194.894 38.355 117.794 0 119.888-42.702 256.218-42.702h104.633c108.228 0 198.591 89.648 193.413 200.549z" />
<glyph unicode="&#xeb62;" d="M905.103 606.055c-16.416 16.416-43.033 16.416-59.447 0-16.416-16.416-16.416-43.033 0-59.447 125.421-125.421 125.441-328.438 0-453.879-26.561-26.561-7.386-71.759 29.723-71.759 10.757 0 21.516 4.105 29.723 12.312 158.277 158.277 158.299 414.475 0 572.772z" />
<glyph unicode="&#xeb63;" d="M811.168 790.063c0-70.811-178.881-128.201-320.503-128.201-141.422 0-320.022 57.23-320.503 127.921 0 73.788 186.024 128.482 320.503 128.482 141.622 0 320.503-57.41 320.503-128.201z" />
<glyph unicode="&#xeb64;" d="M811.168 790.063c0-663.721-320.503-811.953-320.503-811.953s12.019 267.76-128.201 405.977c-190.339 187.634-192.302 397.163-192.302 405.696 0.481-70.691 179.081-127.921 320.503-127.921 141.622 0 320.503 57.39 320.503 128.201z" />
<glyph unicode="&#xeb65;" d="M845.061 612.852c5.412 56.647 8.179 115.768 8.179 177.204 0 36.529-23.345 88.751-134.561 130.082-142.95 53.125-312.951 53.169-456.017 0-110.764-41.163-134.365-93.128-134.555-129.635-0.142-27.479 5.863-77.041 21.081-130.797-110.924-85.35-122.41-230.964 16.947-350.836 65.409-56.264 156.075-99.406 257.312-122.819 28.941-104.47 25.268-204.493 25.202-206.045-1.408-31.403 31.025-53.32 59.682-40.067 55.828 25.816 148.319 107.651 218.461 240.884 258.543 59.105 308.744 279.016 118.271 432.030zM669.881 255.824c-56.234-7.944-118.48-6.845-181.711 3.273-20.941 55.978-51.531 110.946-96.169 154.949-75.997 74.913-129.277 161.926-158.555 257.91 74.236-33.653 174.582-52.166 257.223-52.166 88.387 0 199.747 21.498 275.258 60.94-3.029-50.918-8.117-98.042-14.795-141.598-44.225-21.666-123.474-49.418-239.255-49.418-23.232 0-42.066-18.834-42.066-42.066s18.834-42.066 42.066-42.066c93.164 0 166.635 16.272 220.219 34.859-17.355-73.738-39.252-134.715-62.216-184.618zM292.603 841.512c239.812 88.687 475.88-18.523 476.505-51.455-0.621-32.691-236.124-140.352-476.505-51.455-66.060 24.43-80.3 47.855-80.368 51.455 0.068 3.6 14.308 27.024 80.368 51.455zM179.896 574.381c30.123-68.644 77.734-146.017 153.044-220.253 20.741-20.444 37.767-44.352 51.773-70.002-176.567 58.4-297.414 191.398-204.817 290.255zM530.462 58.286c-2.514 32.036-7.382 71.023-16.506 112.484 35.377-3.822 71.286-5.252 107.555-3.71-25.626-39.74-56.174-77.413-91.049-108.775zM772.794 283.659c27.627 73.367 46.341 149.102 59.003 226.157 74.216-85.234 55.078-176.397-59.003-226.157z" />
<glyph unicode="&#xeb66;" d="M338.389 15.743l-85.468 42.733c-20.779 10.388-46.048 1.967-56.439-18.814s-1.967-46.048 18.814-56.439l85.468-42.733c20.823-10.408 46.070-1.923 56.439 18.814 10.388 20.781 1.967 46.048-18.814 56.439z" />
<glyph unicode="&#xeb67;" d="M792.2 58.476l-85.466-42.733c-20.779-10.39-29.202-35.658-18.814-56.439 10.374-20.749 35.628-29.214 56.439-18.814l85.466 42.733c20.779 10.39 29.202 35.658 18.814 56.439-10.392 20.779-35.654 29.202-56.439 18.814z" />
<glyph unicode="&#xeb68;" d="M746.904 448l-64.077-170.872-170.872-64.077-170.872 64.077-64.077 170.872 64.077 170.872 170.872 64.077 170.872-64.077z" />
<glyph unicode="&#xeb69;" d="M970.341 448l45.155 60.205c13.935 18.578 10.168 44.936-8.41 58.871-18.576 13.935-44.936 10.168-58.869-8.41l-51.462-68.617h-120.708l-44.338 118.235 46.682 46.682 81.050-32.421c21.746-8.694 46.11 2.044 54.662 23.426 8.626 21.564-1.864 46.036-23.426 54.66l-47.583 19.033 40.345 40.345c16.42 16.422 16.422 43.046 0 59.468-16.424 16.422-43.046 16.422-59.47 0l-40.343-40.343-19.033 47.585c-8.626 21.564-33.092 32.053-54.66 23.426-21.564-8.624-32.053-33.098-23.426-54.66l32.419-81.052-46.684-46.682-118.233 44.338v120.706l68.617 51.462c18.578 13.935 22.345 40.293 8.41 58.871-13.933 18.576-40.287 22.345-58.869 8.41l-60.207-45.155-60.207 45.155c-18.578 13.933-44.936 10.168-58.869-8.41-13.935-18.58-10.168-44.936 8.41-58.871l68.617-51.462v-120.706l-118.233-44.338-46.684 46.682 32.419 81.052c8.626 21.562-1.864 46.036-23.426 54.66-21.568 8.63-46.036-1.864-54.66-23.426l-19.033-47.585-40.351 40.347c-16.422 16.422-43.048 16.422-59.47 0s-16.42-43.048 0-59.468l40.345-40.345-47.583-19.033c-21.564-8.626-32.053-33.098-23.426-54.66 8.584-21.46 33.004-32.089 54.662-23.426l81.050 32.421 46.682-46.682-44.338-118.235h-120.71l-51.462 68.617c-13.933 18.576-40.291 22.345-58.869 8.41-18.578-13.933-22.345-40.293-8.41-58.871l45.155-60.205-45.155-60.205c-13.935-18.578-10.168-44.936 8.41-58.871 18.494-13.873 44.874-10.252 58.869 8.41l51.462 68.617h120.708l44.338-118.235-46.684-46.688-81.050 32.421c-21.576 8.626-46.038-1.864-54.662-23.426-8.626-21.564 1.864-46.036 23.426-54.66l47.583-19.033-40.345-40.345c-16.42-16.422-16.422-43.046 0-59.468 16.422-16.42 43.044-16.424 59.47 0l40.343 40.343 19.033-47.585c8.582-21.458 32.996-32.091 54.66-23.426 21.564 8.624 32.053 33.098 23.426 54.66l-32.419 81.052 46.684 46.682 118.233-44.338v-120.706l-68.617-51.462c-18.578-13.935-22.345-40.293-8.41-58.871s40.291-22.345 58.869-8.41l60.207 45.155 60.207-45.155c18.494-13.871 44.874-10.252 58.869 8.41 13.935 18.58 10.168 44.936-8.41 58.871l-68.617 51.462v120.706l118.233 44.338 46.684-46.682-32.419-81.052c-11.067-27.663 9.423-57.684 39.029-57.678 16.688 0 32.481 10.004 39.057 26.446l19.033 47.585 40.343-40.343c8.212-8.212 18.975-12.317 29.736-12.317 37.145 0 56.284 45.235 29.736 71.785l-40.345 40.345 47.583 19.033c21.564 8.626 32.053 33.098 23.426 54.66-8.624 21.562-33.096 32.051-54.662 23.426l-81.050-32.421-46.682 46.682 44.338 118.235h120.708l51.462-68.617c8.262-11.015 20.887-16.822 33.673-16.822 33.985 0.004 54.684 39.181 33.607 67.285zM650.165 309.789l-138.209-51.829-138.209 51.829-51.831 138.211 51.831 138.211 138.209 51.829 138.209-51.829 51.831-138.211z" />
<glyph unicode="&#xeb6a;" d="M554.672 448c0-23.592-19.125-42.718-42.718-42.718s-42.718 19.125-42.718 42.718c0 23.592 19.125 42.718 42.718 42.718s42.718-19.125 42.718-42.718z" />
<glyph unicode="&#xeb6b;" d="M678.316 252.386c-80.164-68.409-192.55-79.403-283.068-32.963-106.040 54.257-162.389 176.301-130.65 294.723 48.183 180.19 270.083 251.199 413.718 128.647-119.766-102.123-120.703-287.484 0-390.408z" />
<glyph unicode="&#xeb6c;" d="M395.428 219.703c-0.561-0.873-34.481 16.618-64.504 46.641-67.147 67.127-89.256 162.251-66.326 247.802 70.071 5.447 139.121-33.023 169.34-100.911 30.259-67.948 12.576-145.129-38.51-193.532z" />
<glyph unicode="&#xeb6d;" d="M705.588 610.78c19.69 16.772 19.7 47.219 0.024 64.005-166.3 141.885-422.794 60.977-480.789-146.33-0.813-2.241-1.43-4.564-1.854-6.953-48.167-189.859 95.378-372.3 289.288-372.3 71.002 0 139.285 25.059 193.356 71.191 9.37 7.992 14.763 19.692 14.759 32.006-0.008 23.134-15.456 31.701-27.426 43.671-88.443 88.443-82.411 233.72 12.642 314.711zM299.255 470.78c90.83-15.434 136.906-118.582 87.057-196.552-62.371 45.129-95.324 119.978-87.057 196.552zM613.42 258.74c-46.358-24.742-99.996-31.070-150.067-19.475 69.777 124.24 0.537 280.569-138.636 312.17 57.513 103.913 187.524 139.009 288.704 85.005-89.599-109.456-89.597-268.243 0-377.699z" />
<glyph unicode="&#xeb6e;" d="M981.945 874.555h-43.39v43.39c0 23.226-18.828 42.055-42.055 42.055s-42.055-18.828-42.055-42.055v-43.39h-43.39c-23.226 0-42.055-18.828-42.055-42.055s18.828-42.055 42.055-42.055h43.39v-43.39c0-23.226 18.828-42.055 42.055-42.055s42.055 18.828 42.055 42.055v43.39h43.39c23.226 0 42.055 18.828 42.055 42.055s-18.828 42.055-42.055 42.055z" />
<glyph unicode="&#xeb6f;" d="M170.221 84.195h-22.029v22.029c0 23.226-18.828 42.055-42.055 42.055s-42.055-18.828-42.055-42.055v-22.029h-22.029c-23.226 0-42.055-18.828-42.055-42.055s18.828-42.055 42.055-42.055h22.029v-22.029c0-23.226 18.828-42.055 42.055-42.055s42.055 18.828 42.055 42.055v22.029h22.029c23.226 0 42.055 18.828 42.055 42.055s-18.828 42.055-42.055 42.055z" />
<glyph unicode="&#xeb70;" d="M853.777 148.945c0-23.594-19.127-42.722-42.722-42.722s-42.722 19.127-42.722 42.722c0 23.594 19.127 42.722 42.722 42.722s42.722-19.127 42.722-42.722z" />
<glyph unicode="&#xeb71;" d="M212.943 789.779c0-23.594-19.127-42.722-42.722-42.722s-42.722 19.127-42.722 42.722c0 23.594 19.127 42.722 42.722 42.722s42.722-19.127 42.722-42.722z" />
<glyph unicode="&#xeb72;" d="M980.747 361.293c-80.047-68.309-192.268-79.287-282.653-32.915-105.884 54.177-162.151 176.043-130.458 294.291 48.112 179.926 269.687 250.83 413.111 128.459-119.59-101.973-120.526-287.062 0-389.835z" />
<glyph unicode="&#xeb73;" d="M42.223 277.335c0-47.030 13.868-92.375 40.033-131.118 0.020-0.020 0.020-0.040 0.040-0.060 31.295-37.174 78.187-60.79 130.578-60.79h618.557c82.466 0 149.315 66.849 149.315 149.315 0 110.808-116.389 182.252-214.784 134.198-13.738 128.399-122.42 228.402-254.478 228.402-77.507 0-146.936-34.434-193.888-88.845-144.25 25.276-275.374-85.822-275.374-231.102z" />
<glyph unicode="&#xeb74;" d="M42.223 277.335c0-47.030 13.868-92.375 40.033-131.118 0.020-0.020 0.020-0.040 0.040-0.060 31.295-37.174 78.187-60.79 130.578-60.79h106.642c0 58.69 26.81 110.158 68.471 145.006 104.429 87.353 60.55 257.169-73.894 278.638-143.684 22.942-271.871-88.245-271.871-231.676z" />
<glyph unicode="&#xeb75;" d="M783.332 298.574c89.543 3.211 161.449-71.954 154.258-161.301-0.59-7.325-1.134-8.729-0.8-8.395 93.978 93.598 27.267 255.102-105.361 255.102-23.668 0-46.052-5.507-65.939-15.309-35.446-17.477-21.652-71.514 17.841-70.096z" />
<glyph unicode="&#xeb76;" d="M1024 359.71c-0.004 23.138-15.471 31.699-27.397 43.623-87.387 87.387-83.3 232.419 12.656 314.254 19.643 16.755 19.645 47.142 0.002 63.897-164.717 140.511-419.194 62.482-479.068-142.81-85.68 5.355-168.492-26.262-228.546-85.824-233.683 20.727-382.812-239.446-254.282-430.001 0.866-1.296 1.804-2.544 2.808-3.737 40.521-48.132 99.823-75.737 162.703-75.737h618.557c143.224 0 235.031 152.103 170.38 278.254 8.871 7.087 22.19 16.973 22.188 38.082zM917.192 743.194c-75.847-92.677-87.379-220.743-34.608-324.178-28.003 7.779-57.119 8.887-84.532 4.067-26.28 92.271-95.694 166.1-185.209 198.463 41.271 126.215 187.857 183.815 304.349 121.648zM831.432 127.36h-618.557c-37.316 0-72.558 16.079-97.036 44.187-89.067 135.184 20.719 317.879 185.735 296.843 94.14-12.118 167.918-92.781 167.918-191.054 0-23.192 18.801-41.993 41.993-41.993s41.993 18.801 41.993 41.993c0 107.936-62.148 201.617-152.531 247.177 122.916 74.188 285.953 8.389 318.939-134.446-8.309-5.971-16.261-12.654-23.726-20.121-16.399-16.399-16.399-42.989 0-59.386 16.399-16.399 42.987-16.399 59.386 0 67.407 67.405 183.206 19.449 183.206-75.877 0.002-59.178-48.142-107.322-107.32-107.322z" />
<glyph unicode="&#xeb77;" d="M981.821 469.355c0-163.621-151.093-284.923-310.622-250.464-115.412 24.944-201.876 127.604-201.876 250.464 0 141.518 114.732 256.249 256.249 256.249 141.528 0 256.249-114.768 256.249-256.249z" />
<glyph unicode="&#xeb78;" d="M981.821 469.355c0-163.621-151.093-284.923-310.622-250.464-103.312 189.701 62.949 419.594 279.572 372.803 19.799-36.355 31.050-78.036 31.050-122.339z" />
<glyph unicode="&#xeb79;" d="M42.235 277.168c0-47.084 13.884-92.48 40.079-131.268 0.020-0.020 0.020-0.040 0.040-0.060 31.33-37.216 78.276-60.859 130.727-60.859h619.262c82.56 0 149.485 66.925 149.485 149.485 0 110.934-116.521 182.459-215.029 134.351-13.753 128.545-122.559 228.662-254.768 228.662-77.595 0-147.103-34.474-194.109-88.947-144.414 25.307-275.688-85.92-275.688-231.365z" />
<glyph unicode="&#xeb7a;" d="M42.235 277.168c0-47.084 13.884-92.48 40.079-131.268 0.020-0.020 0.020-0.040 0.040-0.060 31.33-37.216 78.276-60.859 130.727-60.859h106.764c0 58.757 26.84 110.283 68.549 145.171 104.548 87.453 60.619 257.462-73.978 278.955-143.848 22.968-272.181-88.346-272.181-231.94z" />
<glyph unicode="&#xeb7b;" d="M784.189 298.431c89.645 3.215 161.633-72.036 154.434-161.485-0.591-7.333-1.135-8.738-0.801-8.404 94.086 93.705 27.299 255.392-105.481 255.392-23.695 0-46.105-5.513-66.014-15.327-35.487-17.497-21.677-71.594 17.861-70.176z" />
<glyph unicode="&#xeb7c;" d="M964.036 648.359l32.86 32.866c16.416 16.42 16.414 43.038-0.004 59.456-16.42 16.416-43.040 16.414-59.456-0.004l-32.856-32.86c-39.286 29.565-86.082 49.646-136.965 56.855l-0.004 46.355c-0.002 23.219-18.826 42.041-42.045 42.039s-42.039-18.826-42.037-42.043l0.004-46.407c-49.967-7.169-97.048-26.942-136.933-56.825l-32.898 32.892c-16.418 16.416-43.038 16.416-59.454-0.004-16.418-16.42-16.416-43.038 0.004-59.454l32.81-32.806c-2.639-3.503-5.205-7.071-7.695-10.704-66.913-7.359-129.448-37.136-177.415-84.71-234.384 20.78-383.013-240.074-254.57-430.497 0.867-1.297 1.806-2.546 2.811-3.742 40.567-48.187 99.937-75.824 162.888-75.824h619.262c151.635 0 242.62 168.612 161.069 295.039 48.345 98.502 39.587 218.741-29.377 310.378zM798.925 423.082c-29.070 102.071-110.838 181.579-214.282 207.484 38.539 33.597 88.52 52.998 140.937 52.998 146.108 0 250.167-144.164 202.747-283.384-40.047 23.183-85.948 30.544-129.402 22.902zM832.344 127.022h-619.262c-37.358 0-72.641 16.098-97.146 44.237-89.169 135.338 20.742 318.242 185.947 297.181 94.248-12.132 168.11-92.886 168.11-191.272 0-23.219 18.822-42.041 42.041-42.041s42.041 18.822 42.041 42.041c0 108.059-62.219 201.846-152.705 247.459 123.056 74.272 286.278 8.398 319.303-134.599-8.318-5.978-16.28-12.668-23.753-20.144-16.418-16.418-16.418-43.038 0-59.454 16.418-16.418 43.036-16.418 59.454 0 67.822 67.822 183.414 19.018 183.414-75.964 0.002-59.246-48.199-107.445-107.443-107.445z" />
<glyph unicode="&#xeb7d;" d="M980.747 467.949c-80.047-68.309-192.268-79.287-282.653-32.914-105.884 54.179-162.151 176.042-130.458 294.291 48.112 179.926 269.687 250.83 413.111 128.458-119.59-101.975-120.526-287.064 0-389.835z" />
<glyph unicode="&#xeb7e;" d="M42.225 383.989c0-47.030 13.868-92.374 40.033-131.118 0.020-0.020 0.020-0.040 0.040-0.060 31.295-37.174 78.187-60.79 130.578-60.79h618.556c82.466 0 149.315 66.849 149.315 149.315 0 110.807-116.388 182.251-214.784 134.197-13.738 128.398-122.419 228.402-254.477 228.402-77.507 0-146.935-34.434-193.887-88.845-144.25 25.278-275.374-85.822-275.374-231.101z" />
<glyph unicode="&#xeb7f;" d="M42.225 383.989c0-47.030 13.868-92.374 40.033-131.118 0.020-0.020 0.020-0.040 0.040-0.060 31.295-37.174 78.187-60.79 130.578-60.79h106.642c0 58.69 26.809 110.157 68.47 145.006 104.428 87.353 60.55 257.169-73.894 278.637-143.682 22.942-271.87-88.245-271.87-231.675z" />
<glyph unicode="&#xeb80;" d="M783.334 405.227c89.543 3.211 161.449-71.954 154.258-161.301-0.59-7.325-1.134-8.729-0.8-8.395 93.978 93.598 27.267 255.101-105.36 255.101-23.668 0-46.052-5.507-65.939-15.309-35.446-17.477-21.654-71.512 17.841-70.096z" />
<glyph unicode="&#xeb81;" d="M1024 466.365c-0.004 23.094-15.445 31.675-27.395 43.621-87.395 87.395-83.294 232.425 12.65 314.251 19.645 16.753 19.653 47.142 0.006 63.901-164.714 140.506-419.186 62.492-479.068-142.81-85.68 5.355-168.492-26.262-228.546-85.824-233.659 20.723-382.826-239.426-254.279-430 0.866-1.296 1.804-2.544 2.808-3.737 38.701-45.972 94.542-73.2 154.266-75.553l-10.078-30.233c-9.092-27.275 11.324-55.283 39.843-55.283 17.581 0 33.966 11.13 39.831 28.725l18.869 56.604h167.428l-10.016-30.047c-9.092-27.275 11.324-55.283 39.843-55.283 17.581 0 33.968 11.13 39.831 28.725l18.869 56.604h167.428l-10.016-30.045c-9.092-27.275 11.324-55.285 39.843-55.285 17.581 0 33.966 11.128 39.831 28.725l18.869 56.606h26.614c143.246 0 235.017 152.128 170.379 278.253 8.875 7.083 22.194 16.973 22.19 38.082zM917.192 849.847c-75.847-92.676-87.381-220.743-34.608-324.176-28.123 7.811-57.238 8.865-84.532 4.065-26.28 92.275-95.692 166.1-185.209 198.463 41.185 125.931 187.634 183.937 304.349 121.648zM831.432 234.014h-618.556c-37.316 0-72.558 16.079-97.036 44.187-89.097 135.229 20.613 317.891 185.737 296.842 94.142-12.118 167.918-92.782 167.918-191.054 0-23.192 18.801-41.993 41.993-41.993s41.993 18.801 41.993 41.993c0 107.936-62.148 201.616-152.53 247.176 122.919 74.19 285.952 8.385 318.938-134.445-8.309-5.971-16.261-12.654-23.726-20.121-16.397-16.399-16.397-42.989 0-59.386 16.399-16.399 42.989-16.399 59.388 0 67.495 67.495 183.203 19.305 183.203-75.877 0-59.178-48.144-107.322-107.322-107.322z" />
<glyph unicode="&#xeb82;" d="M354.127 82.551c-22 7.333-45.782-4.557-53.117-26.56l-21.33-63.989c-9.092-27.275 11.324-55.283 39.843-55.283 17.581 0 33.966 11.13 39.831 28.725l21.33 63.989c7.337 22.002-4.555 45.782-26.558 53.117z" />
<glyph unicode="&#xeb83;" d="M610.086 82.551c-22.002 7.335-45.784-4.557-53.117-26.558l-21.33-63.989c-9.092-27.275 11.324-55.285 39.843-55.285 17.581 0 33.966 11.128 39.831 28.725l21.33 63.989c7.335 22-4.555 45.782-26.558 53.117z" />
<glyph unicode="&#xeb84;" d="M981.821 576.138c0-163.631-151.102-284.94-310.64-250.478-115.419 24.946-201.888 127.612-201.888 250.478 0 141.526 114.738 256.264 256.264 256.264 141.536 0 256.264-114.774 256.264-256.264z" />
<glyph unicode="&#xeb85;" d="M981.821 576.138c0-163.631-151.102-284.94-310.64-250.478-103.319 189.712 62.953 419.619 279.588 372.824 19.8-36.357 31.052-78.040 31.052-122.346z" />
<glyph unicode="&#xeb86;" d="M42.177 383.94c0-47.087 13.884-92.485 40.081-131.275 0.020-0.020 0.020-0.040 0.040-0.060 31.332-37.218 78.281-60.863 130.735-60.863h619.299c82.565 0 149.494 66.929 149.494 149.494 0 110.94-116.528 182.47-215.042 134.359-13.754 128.553-122.566 228.676-254.783 228.676-77.6 0-147.112-34.476-194.12-88.952-144.423 25.308-275.704-85.925-275.704-231.379z" />
<glyph unicode="&#xeb87;" d="M42.177 383.94c0-47.087 13.884-92.485 40.081-131.275 0.020-0.020 0.020-0.040 0.040-0.060 31.332-37.218 78.281-60.863 130.735-60.863h106.77c0 58.761 26.842 110.29 68.553 145.18 104.554 87.458 60.623 257.478-73.982 278.972-143.856 22.97-272.197-88.351-272.197-231.953z" />
<glyph unicode="&#xeb88;" d="M784.175 405.204c89.65 3.215 161.643-72.040 154.443-161.495-0.591-7.334-1.135-8.739-0.801-8.405 94.091 93.711 27.3 255.407-105.487 255.407-23.696 0-46.108-5.514-66.018-15.328-35.489-17.498-21.678-71.598 17.862-70.18z" />
<glyph unicode="&#xeb89;" d="M354.456 82.141c-22.033 7.344-45.839-4.563-53.181-26.589l-21.356-64.066c-9.103-27.308 11.338-55.351 39.891-55.351 17.602 0 34.007 11.141 39.879 28.76l21.356 64.066c7.344 22.027-4.561 45.837-26.589 53.181z" />
<glyph unicode="&#xeb8a;" d="M610.72 82.141c-22.029 7.344-45.839-4.563-53.181-26.589l-21.356-64.066c-9.103-27.308 11.338-55.351 39.891-55.351 17.602 0 34.007 11.141 39.879 28.76l21.356 64.066c7.344 22.027-4.563 45.837-26.589 53.181z" />
<glyph unicode="&#xeb8b;" d="M964.034 755.153l32.862 32.868c16.417 16.421 16.415 43.040-0.004 59.457-16.423 16.419-43.040 16.417-59.459-0.004l-32.858-32.864c-39.289 29.566-86.087 49.649-136.973 56.859l-0.002 46.358c-0.002 23.22-18.825 42.043-42.045 42.041-23.222-0.002-42.043-18.825-42.041-42.045l0.002-46.408c-49.97-7.169-97.054-26.944-136.941-56.829l-32.898 32.894c-16.423 16.417-43.040 16.417-59.459-0.004-16.417-16.421-16.415-43.040 0.004-59.457l32.814-32.808c-2.639-3.504-5.205-7.071-7.696-10.705-66.917-7.36-129.453-37.138-177.427-84.715-234.636 20.882-383.037-240.636-254.358-430.856 0.803-1.177 1.666-2.314 2.583-3.406 38.748-46.027 94.656-73.288 154.451-75.644l-10.090-30.267c-7.344-22.029 4.561-45.839 26.589-53.181 22.029-7.344 45.839 4.563 53.181 26.589l18.891 56.674h167.631l-10.028-30.081c-7.344-22.029 4.561-45.839 26.589-53.181 22.029-7.344 45.839 4.563 53.179 26.589l18.891 56.674h167.631l-10.028-30.081c-7.344-22.029 4.561-45.839 26.589-53.181 22.029-7.344 45.839 4.563 53.181 26.589l18.891 56.674h26.645c151.642 0 242.636 168.622 161.078 295.058 48.44 98.684 39.465 218.918-29.374 310.39zM798.912 529.862c-29.072 102.079-110.842 181.589-214.295 207.498 38.542 33.599 88.525 52.999 140.945 52.999 146.117 0 250.182-144.173 202.759-283.4-39.256 22.723-85.040 30.706-129.409 22.904zM832.332 233.785h-619.299c-37.365 0-72.649 16.101-97.156 44.246-88.976 135.063 20.463 318.292 185.966 297.192 94.249-12.137 168.113-92.892 168.113-191.283 0-23.22 18.823-42.043 42.043-42.043s42.043 18.823 42.043 42.043c0 108.065-62.22 201.858-152.711 247.473 123.063 74.279 286.295 8.395 319.321-134.607-8.319-5.978-16.281-12.669-23.754-20.145-16.417-16.419-16.417-43.040 0-59.457 16.419-16.419 43.040-16.419 59.459 0 67.576 67.576 183.423 19.328 183.423-75.968 0.002-59.249-48.2-107.451-107.449-107.451z" />
<glyph unicode="&#xeb8c;" d="M980.743 468.265c-80.054-68.315-192.286-79.294-282.68-32.918-105.895 54.184-162.167 176.060-130.471 294.319 48.117 179.943 269.713 250.854 413.151 128.471-119.602-101.983-120.538-287.090 0-389.873z" />
<glyph unicode="&#xeb8d;" d="M42.129 384.298c0-47.035 13.869-92.384 40.037-131.131 0.020-0.020 0.020-0.040 0.040-0.060 31.298-37.177 78.195-60.796 130.591-60.796h618.617c82.474 0 149.33 66.855 149.33 149.33 0 110.818-116.4 182.269-214.805 134.211-13.739 128.411-122.431 228.424-254.502 228.424-77.515 0-146.95-34.438-193.906-88.854-144.264 25.278-275.401-85.83-275.401-231.124z" />
<glyph unicode="&#xeb8e;" d="M42.129 384.298c0-47.035 13.869-92.384 40.037-131.131 0.020-0.020 0.020-0.040 0.040-0.060 31.298-37.177 78.195-60.796 130.591-60.796h106.653c0 58.696 26.812 110.168 68.477 145.020 104.439 87.362 60.556 257.194-73.901 278.664-143.698 22.944-271.897-88.254-271.897-231.698z" />
<glyph unicode="&#xeb8f;" d="M783.309 405.539c89.552 3.212 161.465-71.961 154.273-161.317-0.59-7.325-1.134-8.729-0.8-8.395 93.987 93.607 27.27 255.126-105.371 255.126-23.67 0-46.057-5.508-65.945-15.311-35.45-17.479-21.654-71.521 17.843-70.103z" />
<glyph unicode="&#xeb90;" d="M1024 466.681c-0.004 23.096-15.447 31.678-27.398 43.625-87.404 87.404-83.302 232.448 12.651 314.282 19.647 16.755 19.655 47.147 0.006 63.908-165.336 141.036-419.481 61.632-479.114-142.822-85.688 5.356-168.506-26.264-228.568-85.832-234.144 20.841-382.691-240.257-254.078-430.38 0.802-1.176 1.664-2.312 2.58-3.402 40.525-48.137 99.833-75.745 162.719-75.745h618.617c143.26 0 235.039 152.143 170.396 278.28 8.873 7.086 22.192 16.977 22.19 38.085zM917.182 850.202c-75.855-92.685-87.39-220.764-34.612-324.207-28.126 7.811-57.244 8.865-84.54 4.066-26.282 92.284-95.701 166.116-185.227 198.482 41.189 125.945 187.653 183.953 304.379 121.659zM831.414 234.309h-618.617c-37.323 0-72.569 16.083-97.049 44.197-88.878 134.915 20.441 317.944 185.763 296.865 94.145-12.123 167.928-92.789 167.928-191.073 0-23.194 18.803-41.997 41.997-41.997s41.997 18.803 41.997 41.997c0 107.946-62.152 201.636-152.543 247.201 122.927 74.197 285.98 8.385 318.97-134.459-8.309-5.972-16.263-12.655-23.728-20.123-16.399-16.401-16.399-42.993 0-59.392 16.401-16.401 42.993-16.401 59.394 0 67.501 67.501 183.221 19.307 183.221-75.885 0-59.184-48.149-107.332-107.332-107.332z" />
<glyph unicode="&#xeb91;" d="M426.108-21.007c0-23.562-19.101-42.663-42.663-42.663s-42.663 19.101-42.663 42.663c0 23.562 19.101 42.663 42.663 42.663s42.663-19.101 42.663-42.663z" />
<glyph unicode="&#xeb92;" d="M682.090-21.007c0-23.562-19.101-42.663-42.663-42.663s-42.663 19.101-42.663 42.663c0 23.562 19.101 42.663 42.663 42.663s42.663-19.101 42.663-42.663z" />
<glyph unicode="&#xeb93;" d="M554.099 64.321c0-23.562-19.101-42.663-42.663-42.663s-42.663 19.101-42.663 42.663c0 23.562 19.101 42.663 42.663 42.663s42.663-19.101 42.663-42.663z" />
<glyph unicode="&#xeb94;" d="M298.117 64.321c0-23.562-19.101-42.663-42.663-42.663s-42.663 19.101-42.663 42.663c0 23.562 19.101 42.663 42.663 42.663s42.663-19.101 42.663-42.663z" />
<glyph unicode="&#xeb95;" d="M810.081 64.321c0-23.562-19.101-42.663-42.663-42.663s-42.663 19.101-42.663 42.663c0 23.562 19.101 42.663 42.663 42.663s42.663-19.101 42.663-42.663z" />
<glyph unicode="&#xeb96;" d="M981.674 576.417c0-163.568-151.044-284.831-310.522-250.383-115.375 24.936-201.811 127.563-201.811 250.383 0 141.472 114.695 256.167 256.167 256.167 141.482 0 256.167-114.729 256.167-256.167z" />
<glyph unicode="&#xeb97;" d="M981.674 576.417c0-163.568-151.044-284.831-310.522-250.383-103.279 189.639 62.929 419.459 279.482 372.682 19.793-36.342 31.040-78.009 31.040-122.3z" />
<glyph unicode="&#xeb98;" d="M42.39 384.292c0-47.069 13.879-92.45 40.066-131.225 0.020-0.020 0.020-0.040 0.040-0.060 31.32-37.204 78.251-60.84 130.685-60.84h619.063c82.534 0 149.437 66.904 149.437 149.437 0 110.898-116.484 182.401-214.96 134.307-13.749 128.504-122.52 228.589-254.686 228.589-77.57 0-147.056-34.462-194.046-88.918-144.368 25.298-275.599-85.89-275.599-231.29z" />
<glyph unicode="&#xeb99;" d="M42.39 384.292c0-47.069 13.879-92.45 40.066-131.225 0.020-0.020 0.020-0.040 0.040-0.060 31.32-37.204 78.251-60.84 130.685-60.84h106.729c0 58.738 26.831 110.248 68.527 145.124 104.514 87.425 60.599 257.379-73.954 278.865-143.8 22.963-272.093-88.315-272.093-231.865z" />
<glyph unicode="&#xeb9a;" d="M784.106 405.549c89.616 3.214 161.581-72.013 154.384-161.433-0.59-7.331-1.135-8.736-0.801-8.401 94.055 93.675 27.29 255.31-105.447 255.31-23.687 0-46.090-5.512-65.993-15.322-35.475-17.491-21.672-71.573 17.856-70.154z" />
<glyph unicode="&#xeb9b;" d="M426.645-21.304c0-23.579-19.115-42.694-42.694-42.694s-42.694 19.115-42.694 42.694c0 23.579 19.115 42.694 42.694 42.694s42.694-19.115 42.694-42.694z" />
<glyph unicode="&#xeb9c;" d="M682.812-21.304c0-23.579-19.115-42.694-42.694-42.694s-42.694 19.115-42.694 42.694c0 23.579 19.115 42.694 42.694 42.694s42.694-19.115 42.694-42.694z" />
</font>
</defs>
</svg>
